<?xml version="1.0" standalone="no"?>
<!DOCTYPE svg PUBLIC "-//W3C//DTD SVG 20010904//EN"
 "http://www.w3.org/TR/2001/REC-SVG-20010904/DTD/svg10.dtd">
<svg version="1.0" xmlns="http://www.w3.org/2000/svg"
 width="400.000000pt" height="400.000000pt" viewBox="0 0 400.000000 400.000000"
 preserveAspectRatio="xMidYMid meet">
<metadata>
Created by potrace 1.11, written by Peter Selinger 2001-2013
</metadata>
<g transform="translate(0.000000,400.000000) scale(0.100000,-0.100000)"
fill="#000000" stroke="none">
<path d="M0 2000 l0 -2000 2000 0 2000 0 0 2000 0 2000 -2000 0 -2000 0 0
-2000z m2050 600 l0 -90 -491 0 -492 0 49 -52 c26 -29 108 -116 182 -193 l133
-139 71 72 c92 94 140 117 238 117 62 0 85 -5 132 -28 63 -31 115 -85 149
-156 32 -64 33 -196 2 -261 -30 -65 -87 -127 -147 -158 -43 -22 -64 -27 -131
-27 -97 0 -153 23 -215 86 l-41 42 63 64 62 63 23 -29 c67 -86 205 -56 234 51
31 117 -86 217 -188 161 -17 -10 -162 -155 -322 -323 l-291 -305 490 -3 490
-2 0 -90 0 -90 -620 0 -620 0 0 83 0 83 104 111 105 110 -34 16 c-119 57 -195
212 -168 342 16 73 37 116 84 167 l39 43 60 -65 60 -64 -30 -31 c-85 -88 -42
-229 73 -242 55 -7 86 9 155 80 l54 54 -251 263 -251 262 0 84 0 84 620 0 620
0 0 -90z m1150 -1205 l0 -95 -415 0 -415 0 0 95 0 95 415 0 415 0 0 -95z"/>
</g>
</svg>
