<?xml version="1.0" standalone="no"?>
<!DOCTYPE svg PUBLIC "-//W3C//DTD SVG 20010904//EN"
 "http://www.w3.org/TR/2001/REC-SVG-20010904/DTD/svg10.dtd">
<svg version="1.0" xmlns="http://www.w3.org/2000/svg"
 width="700.000000pt" height="700.000000pt" viewBox="0 0 700.000000 700.000000"
 preserveAspectRatio="xMidYMid meet">
<metadata>
Created by potrace 1.11, written by Peter Selinger 2001-2013
</metadata>
<g transform="translate(0.000000,700.000000) scale(0.100000,-0.100000)"
fill="#000000" stroke="none">
<path d="M2003 4702 l-583 -2 0 -145 0 -144 113 -117 c61 -65 126 -132 142
-149 25 -27 219 -230 404 -424 24 -25 82 -85 129 -133 73 -75 83 -88 71 -101
-8 -8 -52 -54 -98 -102 -46 -48 -98 -95 -115 -105 -127 -71 -289 1 -331 145
-30 102 -5 191 76 266 l50 46 -108 113 -109 112 -64 -69 c-112 -118 -162 -251
-156 -417 7 -215 139 -415 322 -492 l37 -15 -35 -37 c-19 -20 -82 -86 -139
-145 -57 -60 -123 -130 -146 -155 l-43 -47 0 -142 c0 -107 3 -143 13 -144 16
-1 2106 -1 2133 0 21 1 22 4 20 154 l-1 152 -857 5 -857 5 87 92 c48 50 160
167 248 260 173 180 181 188 439 459 302 317 309 322 411 318 175 -6 280 -195
199 -360 -80 -163 -297 -177 -399 -25 l-29 43 -81 -85 c-45 -46 -94 -98 -110
-115 l-28 -31 52 -55 c104 -110 215 -164 355 -173 159 -10 284 37 401 152 297
292 185 805 -205 938 -71 24 -208 30 -282 13 -107 -25 -175 -70 -306 -202
l-122 -123 -72 77 c-39 42 -152 160 -249 262 -98 102 -207 217 -243 255 l-66
70 857 5 858 5 0 153 c0 147 0 152 -20 152 -12 0 -237 1 -501 2 -264 2 -742 2
-1062 0z"/>
<path d="M4157 2602 c-15 -3 -17 -22 -17 -163 l0 -159 730 0 730 0 0 160 0
160 -27 1 c-136 2 -1403 3 -1416 1z"/>
</g>
</svg>
