<?xml version="1.0" encoding="UTF-8"?>
<svg width="29px" height="17px" viewBox="0 0 29 17" version="1.1" xmlns="http://www.w3.org/2000/svg" xmlns:xlink="http://www.w3.org/1999/xlink">
    <!-- Generator: Sketch 54.1 (76490) - https://sketchapp.com -->
    <title>Group 2 Copy</title>
    <desc>Created with Sketch.</desc>
    <g id="Page-1" stroke="none" stroke-width="1" fill="none" fill-rule="evenodd">
        <g id="Group-2-Copy" fill="#000000" fill-rule="nonzero">
            <path d="M8.20290101,6.95142398 C8.57626188,6.59255745 8.89374891,6.28729998 8.89496918,6.28606874 C8.91531914,6.26644075 8.91531914,6.26644075 8.98523285,6.19941977 C9.07845184,6.1100588 9.07845184,6.1100588 9.21051521,5.9834644 C9.44357049,5.76006213 9.67663865,5.53665972 9.89418773,5.32814988 C10.1742485,5.05972579 10.4073816,4.83631001 10.5783578,4.67250508 C10.675518,4.57942014 10.7513093,4.50682764 10.8037991,4.45658074 C10.8315332,4.4300317 10.8527091,4.40977171 10.8671037,4.39601484 C10.8822075,4.38161513 11.8394285,3.46322459 13.7387667,1.64084321 L15.6585681,1.64084321 L15.6585681,16.0598155 L13.5871535,16.0598155 L13.5871535,4.60773261 C13.5446158,4.6485655 13.5010617,4.69037381 13.4565811,4.73307114 C13.0206091,5.15156487 12.5846085,5.57005877 12.1776336,5.96065417 C10.6758549,7.40199067 10.3812743,7.68469001 10.3157488,7.74589906 L9.16170098,8.85384868 L10.195056,9.84537322 C10.9620956,10.5178794 11.408204,11.4677782 11.408204,12.4864654 C11.408204,14.4616685 9.74257392,16.0598155 7.69166919,16.0598155 C5.64083997,16.0598155 3.97522497,14.461654 3.97522497,12.4864654 C3.97522497,11.3910975 4.49160934,10.3775725 5.36132471,9.70344202 L5.54393399,9.5618986 L7.04816501,11.005238 L6.77087184,11.1844935 C6.32084694,11.4754109 6.0466395,11.959034 6.0466395,12.4865523 C6.0466395,13.3524992 6.78153122,14.0576424 7.69166919,14.0576424 C8.6018856,14.0576424 9.33678944,13.3525107 9.33678944,12.4865523 C9.33678944,12.0675583 9.16316533,11.6756314 8.85758396,11.3832653 L8.81203683,11.3395619 C8.7974766,11.3264372 8.78397707,11.3135426 8.77103083,11.3002175 L5.06628056,7.74708579 C5.03392311,7.71441642 5.03238036,7.71284112 5.0332253,7.71363068 L1.79609429,4.60753952 L1.79609429,16.0598155 L-0.275320247,16.0598155 L-0.275320247,1.64084321 L1.64448364,1.64084321 L4.17278493,4.06679826 C4.35398267,3.55284828 4.6563394,3.08177303 5.06637113,2.68833949 C6.51712739,1.29631018 8.86619472,1.29628129 10.3167861,2.68833949 C10.4104197,2.77818274 10.498785,2.87260286 10.5817869,2.9712793 L10.7386612,3.15777871 L9.23708188,4.59869227 L9.05850842,4.34431296 C8.99848928,4.25881522 8.9316741,4.18043312 8.85758396,4.10934217 C8.21451394,3.49230378 7.16873307,3.49228055 6.52558493,4.1092441 C5.89234038,4.71692907 5.88702669,5.69686473 6.50991231,6.30940506 L7.69134647,7.4430896 C7.88722844,7.25483176 8.05050774,7.09790114 8.20290101,6.95142398 Z M9.27519496,6.65275467 C9.27487492,6.65307638 9.27421029,6.65372764 9.27319555,6.65471374 L9.27519496,6.65275467 Z" id="Fill-1" transform="translate(7.691624, 8.850329) rotate(-90.000000) translate(-7.691624, -8.850329) "></path>
            <polygon id="Fill-2" transform="translate(23.544217, 15.819499) rotate(-90.000000) translate(-23.544217, -15.819499) " points="24.6010564 10.9330698 24.6010564 20.7059289 22.4873773 20.7059289 22.4873773 10.9330698"></polygon>
        </g>
    </g>
</svg>