<?xml version="1.0" encoding="UTF-8"?>
<svg width="50px" height="48px" viewBox="0 0 50 48" version="1.1" xmlns="http://www.w3.org/2000/svg" xmlns:xlink="http://www.w3.org/1999/xlink">
    <!-- Generator: Sketch 43.1 (39012) - http://www.bohemiancoding.com/sketch -->
    <title>1</title>
    <desc>Created with Sketch.</desc>
    <defs></defs>
    <g id="Sales-page" stroke="none" stroke-width="1" fill="none" fill-rule="evenodd">
        <g id="Desktop-HD-Copy-42" transform="translate(-355.000000, -2109.000000)" fill-rule="nonzero">
            <g id="1" transform="translate(355.000000, 2109.000000)">
                <path d="M49.7402344,26.38125 L47.4070312,24.0480469 C47.240625,23.8816406 47.0150391,23.7881836 46.7796875,23.7881836 C46.5443359,23.7881836 46.3188477,23.8816406 46.1523437,24.0480469 L45.4823242,24.7181641 L44.3514648,23.5873047 C43.8758789,23.1117188 43.5462891,22.5261719 43.4474609,21.9807617 C43.1362305,20.2636719 41.6550781,18.6484375 39.9255859,18.1402344 L30.4803711,15.3649414 L30.4803711,8.09863281 C30.4803711,7.60869141 30.0833008,7.21152344 29.5932617,7.21152344 L23.3668945,7.21152344 C22.8768555,7.21152344 22.4797852,7.60869141 22.4797852,8.09863281 L22.4797852,39.5575195 C22.4797852,40.0474609 22.8768555,40.4446289 23.3668945,40.4446289 L29.8857422,40.4446289 L29.8857422,45.8798828 L15.8032227,45.8798828 C15.3131836,45.8798828 14.9161133,46.2770508 14.9161133,46.7669922 C14.9161133,47.2569336 15.3131836,47.6541016 15.8032227,47.6541016 L30.7728516,47.6541016 C31.2628906,47.6541016 31.6599609,47.2569336 31.6599609,46.7669922 L31.6599609,39.5576172 C31.6599609,39.0676758 31.2628906,38.6705078 30.7728516,38.6705078 L24.2540039,38.6705078 L24.2540039,8.98564453 L28.70625,8.98564453 L28.70625,16.0288086 C28.70625,16.0314453 28.7066406,16.0339844 28.7066406,16.0367188 C28.7066406,16.0449219 28.7076172,16.0530273 28.7078125,16.0613281 C28.7088867,16.090332 28.7111328,16.1188477 28.7149414,16.1469727 C28.7162109,16.156543 28.7176758,16.1660156 28.7193359,16.1755859 C28.724707,16.2076172 28.731543,16.2392578 28.7402344,16.2701172 C28.7410156,16.2730469 28.7413086,16.2760742 28.7422852,16.2790039 L28.7447266,16.2875 C28.7455078,16.2901367 28.7461914,16.2926758 28.7469727,16.2953125 L31.7046875,26.3612305 C32.2128906,28.090918 33.828125,29.5719727 35.5452148,29.8830078 C36.0904297,29.9817383 36.6761719,30.3113281 37.1517578,30.7870117 L38.2826172,31.9179688 L37.6125,32.5880859 C37.2661133,32.9344727 37.2661133,33.4960938 37.6125,33.8424805 L39.9456055,36.1756836 C40.1120117,36.3420898 40.3375977,36.4355469 40.5729492,36.4355469 C40.8083008,36.4355469 41.0337891,36.3420898 41.200293,36.1756836 L49.7402344,27.6357422 C49.906543,27.4694336 50,27.24375 50,27.0084961 C50,26.7732422 49.906543,26.5475586 49.7402344,26.38125 Z M35.8616211,28.1374023 C34.8040039,27.9458008 33.7257812,26.9458984 33.4069336,25.8610352 L31.4246094,19.1144531 L34.9806641,22.6705078 C34.8361328,22.9907227 34.7576172,23.3395508 34.7576172,23.7013672 C34.7576172,24.3713867 35.0186523,25.0013672 35.4923828,25.4750977 C35.9662109,25.9489258 36.5960937,26.2098633 37.2662109,26.2098633 C37.9362305,26.2098633 38.5662109,25.9489258 39.0399414,25.4750977 C39.5136719,25.0012695 39.774707,24.3713867 39.774707,23.7013672 C39.774707,23.0313477 39.5136719,22.4013672 39.0399414,21.9276367 C38.5661133,21.4538086 37.9362305,21.1928711 37.2662109,21.1928711 C36.9043945,21.1928711 36.5553711,21.2712891 36.2353516,21.4158203 L32.6793945,17.8598633 L39.4256836,19.8421875 C40.5105469,20.1609375 41.5104492,21.2392578 41.7020508,22.296875 C41.8661133,23.2022461 42.3615234,24.1060547 43.0972656,24.8416992 L44.228125,25.9725586 L39.5374023,30.6632813 L38.406543,29.5324219 C37.6707031,28.7969727 36.7669922,28.3013672 35.8616211,28.1374023 Z M36.5317383,23.7014648 C36.5317383,23.5053711 36.6081055,23.3209961 36.746875,23.1822266 C36.8854492,23.0436523 37.0700195,22.9671875 37.2661133,22.9671875 C37.462207,22.9671875 37.6466797,23.0435547 37.7853516,23.1822266 C37.9241211,23.3209961 38.0004883,23.5053711 38.0004883,23.7014648 C38.0004883,23.8975586 37.9241211,24.0819336 37.7853516,24.2207031 C37.6467773,24.3592773 37.4623047,24.4357422 37.2661133,24.4357422 C37.0699219,24.4357422 36.8855469,24.359375 36.746875,24.2207031 C36.6081055,24.0820313 36.5317383,23.8976563 36.5317383,23.7014648 Z M40.5729492,34.2939453 L39.4944336,33.2152344 L46.7798828,25.9297852 L47.8585937,27.0084961 L40.5729492,34.2939453 Z" id="Shape" fill="#CCD1D9"></path>
                <path d="M36.8027344,0.0021484375 L0.887109375,0.0021484375 C0.397070312,0.0021484375 0,0.399316406 0,0.889257812 L0,16.0289062 C0,16.5188477 0.397070312,16.9160156 0.887109375,16.9160156 L8.09648437,16.9160156 C8.58652344,16.9160156 8.98359375,16.5188477 8.98359375,16.0289062 L8.98359375,8.98574219 L13.5012695,8.98574219 L13.5012695,38.6705078 L6.91679687,38.6705078 C6.42675781,38.6705078 6.0296875,39.0676758 6.0296875,39.5576172 L6.0296875,46.7669922 C6.0296875,47.2569336 6.42675781,47.6541016 6.91679687,47.6541016 L11.3087891,47.6541016 C11.7988281,47.6541016 12.1958984,47.2569336 12.1958984,46.7669922 C12.1958984,46.2770508 11.7988281,45.8798828 11.3087891,45.8798828 L7.80380859,45.8798828 L7.80380859,40.4446289 L14.3881836,40.4446289 C14.8782227,40.4446289 15.275293,40.0474609 15.275293,39.5575195 L15.275293,8.09863281 C15.275293,7.60869141 14.8782227,7.21152344 14.3881836,7.21152344 L8.09638672,7.21152344 C7.60634766,7.21152344 7.20927734,7.60869141 7.20927734,8.09863281 L7.20927734,15.1417969 L1.77412109,15.1417969 L1.77412109,1.77636719 L35.915625,1.77636719 L35.915625,4.45214844 C35.915625,4.94208984 36.3126953,5.33925781 36.8027344,5.33925781 C37.2927734,5.33925781 37.6898437,4.94208984 37.6898437,4.45214844 L37.6898437,0.889257812 C37.6897461,0.399316406 37.2927734,0.0021484375 36.8027344,0.0021484375 Z" id="Shape" fill="#FBBE3C"></path>
            </g>
        </g>
    </g>
</svg>