<?xml version="1.0" encoding="UTF-8"?>
<svg width="50px" height="50px" viewBox="0 0 50 50" version="1.1" xmlns="http://www.w3.org/2000/svg" xmlns:xlink="http://www.w3.org/1999/xlink">
    <!-- Generator: Sketch 43.1 (39012) - http://www.bohemiancoding.com/sketch -->
    <title>2</title>
    <desc>Created with Sketch.</desc>
    <defs></defs>
    <g id="Sales-page" stroke="none" stroke-width="1" fill="none" fill-rule="evenodd">
        <g id="Desktop-HD-Copy-42" transform="translate(-582.000000, -2107.000000)" fill-rule="nonzero">
            <g id="2" transform="translate(582.000000, 2107.000000)">
                <path d="M26.0363281,40.6158203 C26.0363281,41.1924805 25.5695312,41.6578125 24.9944336,41.6578125 C24.4193359,41.6578125 23.9540039,41.1924805 23.9540039,40.6158203 C23.9540039,40.0407227 24.4193359,39.5754883 24.9944336,39.5754883 C25.5695312,39.5754883 26.0363281,40.0407227 26.0363281,40.6158203 Z" id="Shape" fill="#000000"></path>
                <polygon id="Shape" fill="#FFCE54" points="20.8296875 49.9886719 29.203418 49.9886719 33.3268555 37.4916016 24.9944336 29.1606445 16.6634766 37.4916016"></polygon>
                <path d="M30.2025391,47.9063477 L26.0363281,47.9063477 L26.0363281,40.6158203 C26.0363281,40.0407227 25.5695312,39.5754883 24.9944336,39.5754883 C24.4193359,39.5754883 23.9540039,40.0408203 23.9540039,40.6158203 L23.9540039,47.9063477 L19.787793,47.9063477 C19.2126953,47.9063477 18.7458984,48.3731445 18.7458984,48.9482422 C18.7458984,49.5234375 19.2126953,49.9886719 19.787793,49.9886719 L30.2025391,49.9886719 C30.7777344,49.9886719 31.2428711,49.5233398 31.2428711,48.9482422 C31.2428711,48.3731445 30.7777344,47.9063477 30.2025391,47.9063477 Z" id="Shape" fill="#F6BB42"></path>
                <rect id="Rectangle-path" fill="#434A54" x="5.20830078" y="24.9944336" width="40.3154297" height="2.08388672"></rect>
                <g id="Group" transform="translate(0.000000, 22.851562)" fill="#656D78">
                    <ellipse id="Oval" cx="46.8645508" cy="3.18486328" rx="3.12431641" ry="3.12431641"></ellipse>
                    <ellipse id="Oval" cx="3.12431641" cy="3.18486328" rx="3.12431641" ry="3.12431641"></ellipse>
                </g>
                <path d="M45.5920898,0.0001953125 C45.7461914,1.02841797 45.8240234,2.0703125 45.8240234,3.12451172 C45.8240234,5.93759766 45.2732422,8.66523437 44.1871094,11.2326172 C43.1390625,13.7116211 41.6364258,15.9404297 39.7233398,17.853418 C37.8088867,19.7665039 35.581543,21.2691406 33.1010742,22.3170898 C30.5351562,23.4033203 27.8075195,23.9540039 24.9944336,23.9540039 C22.1813477,23.9540039 19.4537109,23.4033203 16.887793,22.3170898 C14.4073242,21.269043 12.1799805,19.7664062 10.2669922,17.853418 C8.35400391,15.9404297 6.85136719,13.7116211 5.80175781,11.2326172 C4.71708984,8.66523437 4.16640625,5.9375 4.16640625,3.12451172 C4.16640625,2.0703125 4.24414062,1.02841797 4.39833984,0.0001953125 L2.29453125,0.0001953125 C2.15566406,1.02236328 2.08398437,2.06572266 2.08398437,3.12451172 C2.08398437,15.7787109 12.3416992,26.0364258 24.9944336,26.0364258 C37.6487305,26.0364258 47.9063477,15.7787109 47.9063477,3.12451172 C47.9063477,2.06572266 47.8331055,1.02236328 47.6943359,0.0001953125 L45.5920898,0.0001953125 L45.5920898,0.0001953125 Z" id="Shape" fill="#CCD1D9"></path>
                <g id="Group" fill="#E6E9ED">
                    <rect id="Rectangle-path" x="0.0001953125" y="0.0001953125" width="6.24853516" height="6.24853516"></rect>
                    <rect id="Rectangle-path" x="43.7395508" y="0.0001953125" width="6.24863281" height="6.24853516"></rect>
                    <rect id="Rectangle-path" x="21.8704102" y="22.9124023" width="6.24853516" height="6.24853516"></rect>
                </g>
            </g>
        </g>
    </g>
</svg>