<?xml version="1.0" encoding="UTF-8"?>
<svg width="50px" height="49px" viewBox="0 0 50 49" version="1.1" xmlns="http://www.w3.org/2000/svg" xmlns:xlink="http://www.w3.org/1999/xlink">
    <!-- Generator: Sketch 43.1 (39012) - http://www.bohemiancoding.com/sketch -->
    <title>3</title>
    <desc>Created with Sketch.</desc>
    <defs></defs>
    <g id="Sales-page" stroke="none" stroke-width="1" fill="none" fill-rule="evenodd">
        <g id="Desktop-HD-Copy-42" transform="translate(-808.000000, -2108.000000)" fill-rule="nonzero">
            <g id="3" transform="translate(808.000000, 2108.000000)">
                <path d="M25,5.88583984 L7.04589844,5.88583984 C6.61347656,5.88583984 6.26298828,6.23632813 6.26298828,6.66875 L6.26298828,24.2052734 L25,24.2052734 L25,5.88583984 Z" id="Shape" fill="#E6EAEA"></path>
                <g id="Group" transform="translate(6.250000, 5.859375)" fill="#CDD4D5">
                    <path d="M37.4869141,18.3458984 L37.4869141,0.809375 C37.4869141,0.377050781 37.1365234,0.0264648438 36.7040039,0.0264648438 L18.75,0.0264648438 L18.75,18.3458984 L37.4869141,18.3458984 Z" id="Shape"></path>
                    <path d="M0.0130859375,18.3458984 L0.0130859375,36.3 C0.0130859375,36.7323242 0.363476562,37.0829102 0.795996094,37.0829102 L18.75,37.0829102 L18.75,18.3458984 L0.0130859375,18.3458984 Z" id="Shape"></path>
                </g>
                <path d="M25,24.2052734 L25,42.9421875 L42.9541016,42.9421875 C43.3865234,42.9421875 43.7370117,42.5916992 43.7370117,42.1592773 L43.7370117,24.2051758 L25,24.2051758 L25,24.2052734 Z" id="Shape" fill="#E6EAEA"></path>
                <g id="Group" transform="translate(6.445312, 5.859375)" fill="#656D78">
                    <path d="M18.5546875,3.15800781 C18.9871094,3.15800781 19.3375977,2.80751953 19.3375977,2.37509766 L19.3375977,0.809375 C19.3375977,0.377050781 18.987207,0.0264648438 18.5546875,0.0264648438 C18.1222656,0.0264648438 17.7717773,0.376953125 17.7717773,0.809375 L17.7717773,2.37509766 C17.7717773,2.80751953 18.1222656,3.15800781 18.5546875,3.15800781 Z" id="Shape"></path>
                    <path d="M18.5546875,22.184375 C18.1222656,22.184375 17.7717773,22.5348633 17.7717773,22.9672852 L17.7717773,25.909082 C17.7717773,26.3414063 18.122168,26.6919922 18.5546875,26.6919922 C18.9871094,26.6919922 19.3375977,26.3415039 19.3375977,25.909082 L19.3375977,22.9672852 C19.3375977,22.5348633 18.9871094,22.184375 18.5546875,22.184375 Z" id="Shape"></path>
                    <path d="M18.5546875,28.0678711 C18.1222656,28.0678711 17.7717773,28.4183594 17.7717773,28.8507812 L17.7717773,31.7925781 C17.7717773,32.2249023 18.122168,32.5754883 18.5546875,32.5754883 C18.9871094,32.5754883 19.3375977,32.225 19.3375977,31.7925781 L19.3375977,28.8507812 C19.3375977,28.4183594 18.9871094,28.0678711 18.5546875,28.0678711 Z" id="Shape"></path>
                    <path d="M18.5546875,14.9249023 C18.9871094,14.9249023 19.3375977,14.5744141 19.3375977,14.1419922 L19.3375977,11.2001953 C19.3375977,10.7678711 18.987207,10.4172852 18.5546875,10.4172852 C18.1222656,10.4172852 17.7717773,10.7677734 17.7717773,11.2001953 L17.7717773,14.1419922 C17.7717773,14.5744141 18.1222656,14.9249023 18.5546875,14.9249023 Z" id="Shape"></path>
                    <path d="M18.5546875,9.04140625 C18.9871094,9.04140625 19.3375977,8.69091797 19.3375977,8.25849609 L19.3375977,5.31669922 C19.3375977,4.884375 18.987207,4.53378906 18.5546875,4.53378906 C18.1222656,4.53378906 17.7717773,4.88427734 17.7717773,5.31669922 L17.7717773,8.25849609 C17.7717773,8.69091797 18.1222656,9.04140625 18.5546875,9.04140625 Z" id="Shape"></path>
                    <path d="M18.5546875,33.9513672 C18.1222656,33.9513672 17.7717773,34.3018555 17.7717773,34.7342773 L17.7717773,36.3 C17.7717773,36.7323242 18.122168,37.0829102 18.5546875,37.0829102 C18.9871094,37.0829102 19.3375977,36.7324219 19.3375977,36.3 L19.3375977,34.7342773 C19.3375977,34.3018555 18.9871094,33.9513672 18.5546875,33.9513672 Z" id="Shape"></path>
                    <path d="M2.37519531,17.7717773 L0.809375,17.7717773 C0.376953125,17.7717773 0.0264648437,18.1222656 0.0264648437,18.5546875 C0.0264648437,18.9870117 0.376855469,19.3375977 0.809375,19.3375977 L2.37509766,19.3375977 C2.80751953,19.3375977 3.15800781,18.9871094 3.15800781,18.5546875 C3.15800781,18.1223633 2.80761719,17.7717773 2.37519531,17.7717773 Z" id="Shape"></path>
                    <path d="M8.25859375,17.7717773 L5.31679688,17.7717773 C4.884375,17.7717773 4.53388672,18.1222656 4.53388672,18.5546875 C4.53388672,18.9870117 4.88427734,19.3375977 5.31679688,19.3375977 L8.25859375,19.3375977 C8.69101563,19.3375977 9.04150391,18.9871094 9.04150391,18.5546875 C9.04140625,18.1223633 8.69101563,17.7717773 8.25859375,17.7717773 Z" id="Shape"></path>
                    <path d="M25.9089844,17.7717773 L22.9671875,17.7717773 C22.5347656,17.7717773 22.1842773,18.1222656 22.1842773,18.5546875 C22.1842773,18.9870117 22.534668,19.3375977 22.9671875,19.3375977 L25.9089844,19.3375977 C26.3414063,19.3375977 26.6918945,18.9871094 26.6918945,18.5546875 C26.6918945,18.1223633 26.3414063,17.7717773 25.9089844,17.7717773 Z" id="Shape"></path>
                    <path d="M31.7924805,17.7717773 L28.8505859,17.7717773 C28.4181641,17.7717773 28.0676758,18.1222656 28.0676758,18.5546875 C28.0676758,18.9870117 28.4180664,19.3375977 28.8505859,19.3375977 L31.7924805,19.3375977 C32.2249023,19.3375977 32.5753906,18.9871094 32.5753906,18.5546875 C32.5753906,18.1223633 32.2249023,17.7717773 31.7924805,17.7717773 Z" id="Shape"></path>
                    <path d="M20.0255859,17.7717773 L19.3375977,17.7717773 L19.3375977,17.0837891 C19.3375977,16.6514648 18.987207,16.3008789 18.5546875,16.3008789 C18.1222656,16.3008789 17.7717773,16.6513672 17.7717773,17.0837891 L17.7717773,17.7717773 L17.0837891,17.7717773 C16.6513672,17.7717773 16.3008789,18.1222656 16.3008789,18.5546875 C16.3008789,18.9870117 16.6512695,19.3375977 17.0837891,19.3375977 L17.7717773,19.3375977 L17.7717773,20.0255859 C17.7717773,20.4579102 18.122168,20.8084961 18.5546875,20.8084961 C18.9871094,20.8084961 19.3375977,20.4580078 19.3375977,20.0255859 L19.3375977,19.3375977 L20.0255859,19.3375977 C20.4580078,19.3375977 20.8084961,18.9871094 20.8084961,18.5546875 C20.8083984,18.1223633 20.4579102,17.7717773 20.0255859,17.7717773 Z" id="Shape"></path>
                    <path d="M14.1420898,17.7717773 L11.2001953,17.7717773 C10.7677734,17.7717773 10.4172852,18.1222656 10.4172852,18.5546875 C10.4172852,18.9870117 10.7676758,19.3375977 11.2001953,19.3375977 L14.1420898,19.3375977 C14.5745117,19.3375977 14.925,18.9871094 14.925,18.5546875 C14.9249023,18.1223633 14.5745117,17.7717773 14.1420898,17.7717773 Z" id="Shape"></path>
                    <path d="M36.3,17.7717773 L34.7342773,17.7717773 C34.3018555,17.7717773 33.9513672,18.1222656 33.9513672,18.5546875 C33.9513672,18.9870117 34.3017578,19.3375977 34.7342773,19.3375977 L36.3,19.3375977 C36.7324219,19.3375977 37.0829102,18.9871094 37.0829102,18.5546875 C37.0829102,18.1223633 36.7324219,17.7717773 36.3,17.7717773 Z" id="Shape"></path>
                </g>
                <g id="Group" fill="#FBBE3C">
                    <path d="M42.9541016,4.94638672 C42.5216797,4.94638672 42.1711914,4.59589844 42.1711914,4.16347656 L42.1711914,0.823242188 C42.1711914,0.390917969 42.521582,0.0403320313 42.9541016,0.0403320313 C43.3866211,0.0403320313 43.7370117,0.390820313 43.7370117,0.823242188 L43.7370117,4.16357422 C43.7369141,4.59589844 43.3865234,4.94638672 42.9541016,4.94638672 Z" id="Shape"></path>
                    <path d="M49.2170898,7.45166016 L45.8767578,7.45166016 C45.4443359,7.45166016 45.0938477,7.10117188 45.0938477,6.66875 C45.0938477,6.23632813 45.4442383,5.88583984 45.8767578,5.88583984 L49.2170898,5.88583984 C49.6495117,5.88583984 50,6.23632813 50,6.66875 C50,7.10117188 49.6496094,7.45166016 49.2170898,7.45166016 Z" id="Shape"></path>
                    <path d="M7.04589844,4.94638672 C6.61347656,4.94638672 6.26298828,4.59589844 6.26298828,4.16347656 L6.26298828,0.823242188 C6.26298828,0.390917969 6.61337891,0.0403320313 7.04589844,0.0403320313 C7.47841797,0.0403320313 7.82880859,0.390820313 7.82880859,0.823242188 L7.82880859,4.16357422 C7.82880859,4.59589844 7.47841797,4.94638672 7.04589844,4.94638672 Z" id="Shape"></path>
                    <path d="M4.12314453,7.45166016 L0.782910156,7.45166016 C0.350390625,7.45166016 0,7.10107422 0,6.66875 C0,6.23642578 0.350390625,5.88583984 0.782910156,5.88583984 L4.12324219,5.88583984 C4.55566406,5.88583984 4.90615234,6.23632813 4.90615234,6.66875 C4.90615234,7.10117188 4.55566406,7.45166016 4.12314453,7.45166016 Z" id="Shape"></path>
                    <path d="M42.9541016,48.787793 C42.5216797,48.787793 42.1711914,48.4373047 42.1711914,48.0048828 L42.1711914,44.6645508 C42.1711914,44.2322266 42.521582,43.8816406 42.9541016,43.8816406 C43.3866211,43.8816406 43.7370117,44.2321289 43.7370117,44.6645508 L43.7370117,48.0048828 C43.7369141,48.437207 43.3865234,48.787793 42.9541016,48.787793 Z" id="Shape"></path>
                    <path d="M49.2170898,42.9422852 L45.8767578,42.9422852 C45.4443359,42.9422852 45.0938477,42.5917969 45.0938477,42.159375 C45.0938477,41.7270508 45.4442383,41.3764648 45.8767578,41.3764648 L49.2170898,41.3764648 C49.6495117,41.3764648 50,41.7269531 50,42.159375 C50,42.5916992 49.6496094,42.9422852 49.2170898,42.9422852 Z" id="Shape"></path>
                    <path d="M7.04589844,48.787793 C6.61347656,48.787793 6.26298828,48.4373047 6.26298828,48.0048828 L6.26298828,44.6645508 C6.26298828,44.2322266 6.61337891,43.8816406 7.04589844,43.8816406 C7.47841797,43.8816406 7.82880859,44.2321289 7.82880859,44.6645508 L7.82880859,48.0048828 C7.82880859,48.437207 7.47841797,48.787793 7.04589844,48.787793 Z" id="Shape"></path>
                    <path d="M4.12314453,42.9422852 L0.782910156,42.9422852 C0.350488281,42.9422852 0,42.5917969 0,42.159375 C0,41.7270508 0.350390625,41.3764648 0.782910156,41.3764648 L4.12324219,41.3764648 C4.55566406,41.3764648 4.90615234,41.7269531 4.90615234,42.159375 C4.90605469,42.5916992 4.55566406,42.9422852 4.12314453,42.9422852 Z" id="Shape"></path>
                </g>
            </g>
        </g>
    </g>
</svg>