<?xml version="1.0" encoding="UTF-8"?>
<svg width="50px" height="60px" viewBox="0 0 50 60" version="1.1" xmlns="http://www.w3.org/2000/svg" xmlns:xlink="http://www.w3.org/1999/xlink">
    <!-- Generator: Sketch 43.1 (39012) - http://www.bohemiancoding.com/sketch -->
    <title>5</title>
    <desc>Created with Sketch.</desc>
    <defs></defs>
    <g id="Sales-page" stroke="none" stroke-width="1" fill="none" fill-rule="evenodd">
        <g id="Desktop-HD-Copy-42" transform="translate(-159.000000, -2141.000000)" fill-rule="nonzero">
            <g id="5" transform="translate(159.000000, 2141.000000)">
                <path d="M0.292605634,33.0516432 L5.65481221,23.667723 C6.20950704,22.6969484 7.45762911,22.3733568 8.42840376,22.9280516 L47.9978873,45.9948357 C48.968662,46.5495305 49.2922535,47.7976526 48.7375587,48.7684272 L43.3753521,58.1523474 C42.8206573,59.1231221 41.5725352,59.4467136 40.6017606,58.8920188 L1.03215962,35.8252347 C0.0613849765,35.2705399 -0.262089202,34.0224178 0.292605634,33.0516432 Z" id="Shape" fill="#BF392B"></path>
                <path d="M5.70105634,23.8526995 L5.60856808,23.7602113 L4.54542254,25.6555164 L34.9159624,52.7440141 C34.9158451,52.7438967 5.70105634,23.8526995 5.70105634,23.8526995 Z" id="Shape" fill="#AC3327"></path>
                <path d="M43.3752347,58.1523474 L48.7374413,48.7684272 C49.2921362,47.7976526 48.9685446,46.5495305 47.99777,45.9948357 L35.4706573,38.6911972 L27.6584507,51.3571596 L40.6017606,58.8920188 C41.5724178,59.4467136 42.8205399,59.1231221 43.3752347,58.1523474 Z" id="Shape" fill="#D6D6D6"></path>
                <polygon id="Shape" fill="#CACACA" points="29.87723 47.7515258 29.6461268 48.0751174 34.8697183 52.7438967"></polygon>
                <path d="M5.70105634,21.0328638 L13.2821596,13.4980047 C14.0679577,12.7122066 15.3623239,12.7122066 16.1481221,13.4980047 L48.4139671,45.4402582 C49.1997653,46.2260563 49.1997653,47.4741784 48.4139671,48.2600939 L40.8328638,55.7949531 C40.0470657,56.5807512 38.7526995,56.5807512 37.9669014,55.7949531 L5.70105634,23.8526995 C4.91514085,23.066784 4.91514085,21.818662 5.70105634,21.0328638 Z" id="Shape" fill="#E2574C"></path>
                <path d="M12.7735915,14.0064554 L11.0170188,15.716784 L31.3564554,46.225939 C31.3564554,46.2260563 12.7735915,14.0064554 12.7735915,14.0064554 Z" id="Shape" fill="#CB4E44"></path>
                <path d="M48.4138498,48.2599765 C49.1996479,47.4741784 49.1996479,46.2260563 48.4138498,45.4401408 L37.458216,34.6232394 L26.918662,44.8392019 L37.9666667,55.7948357 C38.7524648,56.5806338 40.046831,56.5806338 40.8326291,55.7948357 C40.8328638,55.7948357 48.4138498,48.2599765 48.4138498,48.2599765 Z" id="Shape" fill="#E0E0E0"></path>
                <path d="M13.5132629,11.2329812 L22.8971831,5.82453052 C23.8679577,5.26983568 25.1160798,5.59342723 25.6707746,6.56420188 L48.6913146,46.5034038 C49.2460094,47.4741784 48.9224178,48.7223005 47.9516432,49.2769953 L38.567723,54.685446 C37.5969484,55.2401408 36.3488263,54.9165493 35.7941315,53.9457746 L12.7735915,14.0064554 C12.2188967,13.0357981 12.5424883,11.7876761 13.5132629,11.2329812 Z" id="Shape" fill="#D07C40"></path>
                <polygon id="Shape" fill="#D1D1D1" points="29.2300469 42.5741784 29.0451878 42.7590376 31.3564554 46.225939"></polygon>
                <path d="M38.6139671,54.7316901 L47.9978873,49.3232394 C48.968662,48.7685446 49.2922535,47.5204225 48.7375587,46.5496479 L40.6942488,32.5893192 L27.9820423,40.44777 L35.7942488,53.9920188 C36.3951878,54.9627934 37.6431925,55.286385 38.6139671,54.7316901 Z" id="Shape" fill="#EBEBEB"></path>
                <path d="M23.6829812,6.65657277 C23.590493,6.28673709 23.590493,5.91690141 23.6829812,5.5471831 C23.4056338,5.59342723 23.1745305,5.68591549 22.8971831,5.82453052 L21.0018779,6.93392019 L34.0375587,44.8393192 L23.6829812,6.65657277 Z M38.5214789,51.5882629 L38.6139671,51.5882629 L38.6139671,51.5420188 L38.5214789,51.5882629 Z" id="Shape" fill="#BB6F39"></path>
                <path d="M38.5214789,51.5882629 L38.6139671,51.5882629 L38.6139671,51.5420188 L38.5214789,51.5882629 Z M32.1423709,37.8591549 L31.7262911,38.1365023 L34.0375587,44.8393192 L32.1423709,37.8591549 Z" id="Shape" fill="#DBDBDB"></path>
                <path d="M25.0697183,4.20657277 L35.516784,1.43298122 C36.5799296,1.1556338 37.6894366,1.75657277 38.0130282,2.81971831 L49.8931925,46.4571596 C50.1705399,47.5203052 49.5233568,48.6298122 48.4602113,48.9071596 L38.0131455,51.6807512 C36.95,51.9580986 35.840493,51.3571596 35.5169014,50.2940141 L23.6829812,6.65657277 C23.3593897,5.59330986 24.0065728,4.48392019 25.0697183,4.20657277 Z" id="Shape" fill="#F4B459"></path>
                <path d="M38.0130282,0 L47.5818075,0 C48.9224178,0 49.9855634,1.06314554 49.9855634,2.40375587 L49.9855634,47.5204225 C49.9855634,48.8610329 48.9224178,49.9241784 47.5818075,49.9241784 L38.0130282,49.9241784 C36.6724178,49.9241784 35.6092723,48.8610329 35.6092723,47.5204225 L35.6092723,2.40375587 C35.6092723,1.06314554 36.6725352,0 38.0130282,0 Z" id="Shape" fill="#EFC75E"></path>
                <path d="M31.6338028,36.0100939 L35.516784,50.2938967 C35.7941315,51.3570423 36.9035211,52.0042254 38.0130282,51.6806338 L48.4600939,48.9070423 C49.5233568,48.6296948 50.1704225,47.5203052 49.8930751,46.4570423 L46.0100939,32.3580986 L31.6338028,36.0100939 Z" id="Shape" fill="#E6E6E6"></path>
                <path d="M35.6092723,2.40375587 C35.6092723,2.03392019 35.7017606,1.71032864 35.8403756,1.43298122 C35.7478873,1.43298122 35.6092723,1.43298122 35.516784,1.47922535 L33.066784,2.12640845 L35.6092723,38.9685446 L35.6092723,2.40375587 L35.6092723,2.40375587 Z" id="Shape" fill="#DBA250"></path>
                <path d="M35.6092723,32.3119718 L35.6092723,47.5203052 C35.6092723,48.8609155 36.6724178,49.924061 38.0130282,49.924061 L47.5818075,49.924061 C48.9224178,49.924061 49.9855634,48.8609155 49.9855634,47.5203052 L49.9855634,32.3119718 L35.6092723,32.3119718 Z" id="Shape" fill="#EFEFEF"></path>
                <path d="M37.9205399,34.6696009 L37.9205399,36.9808685 L45.7789906,36.9808685 L45.7789906,34.6696009 L37.9205399,34.6696009 Z M37.9205399,46.6883803 L41.156338,46.6883803 L41.156338,45.3016432 L37.9205399,45.3016432 L37.9205399,46.6883803 Z M37.9205399,43.4524648 L41.156338,43.4524648 L41.156338,42.0657277 L37.9205399,42.0657277 L37.9205399,43.4524648 Z M37.9205399,40.2166667 L41.156338,40.2166667 L41.156338,38.8299296 L37.9205399,38.8299296 L37.9205399,40.2166667 Z M46.0102113,44.3769953 C46.6573944,44.3769953 47.1658451,44.885446 47.1658451,45.5326291 C47.1658451,46.1798122 46.6573944,46.6882629 46.0102113,46.6882629 C45.3630282,46.6882629 44.8545775,46.1798122 44.8545775,45.5326291 C44.8544601,44.8855634 45.3630282,44.3769953 46.0102113,44.3769953 Z" id="Shape" fill="#BFBFBF"></path>
            </g>
        </g>
    </g>
</svg>