<?xml version="1.0" encoding="UTF-8"?>
<svg width="50px" height="50px" viewBox="0 0 50 50" version="1.1" xmlns="http://www.w3.org/2000/svg" xmlns:xlink="http://www.w3.org/1999/xlink">
    <!-- Generator: Sketch 43.1 (39012) - http://www.bohemiancoding.com/sketch -->
    <title>004-box</title>
    <desc>Created with Sketch.</desc>
    <defs></defs>
    <g id="Sales-page" stroke="none" stroke-width="1" fill="none" fill-rule="evenodd">
        <g id="Desktop-HD-Copy-42" transform="translate(-466.000000, -2141.000000)" fill-rule="nonzero">
            <g id="004-box" transform="translate(466.000000, 2141.000000)">
                <polygon id="Shape" fill="#EFC75E" points="0 12.4378218 24.9566337 0.0374257426 49.9132673 12.4377228 49.9132673 14.0755446 24.9566337 26.4758416 0 14.1146535"></polygon>
                <polygon id="Shape" fill="#E7BF55" points="0 12.4378218 24.9566337 24.8381188 49.9132673 12.4378218 49.9132673 37.2774257 24.8786139 49.6777228 0 37.2775248"></polygon>
                <polygon id="Shape" fill="#DBB551" points="24.9566337 49.6388119 24.9566337 24.8382178 0.155940594 12.5157426 0 12.5157426 0 37.2773267 24.8786139 49.6776238"></polygon>
                <polygon id="Shape" fill="#F7E3AF" points="10.1776238 7.40742574 35.0952475 19.8077228 40.1645545 17.3120792 15.1689109 4.91188119"></polygon>
                <path d="M35.0952475,19.8078218 L40.1645545,17.3121782 L40.1645545,25.1110891 L38.799703,24.8771287 L37.3569307,26.6318812 L35.0952475,26.4759406 C35.0952475,26.4758416 35.0952475,19.8078218 35.0952475,19.8078218 Z" id="Shape" fill="#F1D999"></path>
                <path d="M19.8093069,34.7427723 L11.3864356,30.5313861 C10.9185149,30.2974257 10.5285149,30.570396 10.5285149,31.1553465 L10.5285149,36.809604 C10.5285149,37.3945545 10.9184158,38.0574257 11.3864356,38.2913861 L19.8483168,42.5027723 C20.3162376,42.7367327 20.7062376,42.4637624 20.7062376,41.8788119 L20.7062376,36.1855446 C20.6671287,35.6005941 20.2772277,34.9768317 19.8093069,34.7427723 Z M17.8985149,39.3831683 L12.5172277,36.6925743 C12.2832673,36.5755446 12.0883168,36.2246535 12.0883168,35.9126733 C12.0883168,35.6006931 12.2832673,35.4447525 12.5172277,35.5616832 L17.8985149,38.2522772 C18.1324752,38.3693069 18.3274257,38.720198 18.3274257,39.0321782 C18.3274257,39.3441584 18.1324752,39.500099 17.8985149,39.3831683 Z M18.6784158,37.4333663 L12.5172277,34.3137624 C12.2832673,34.1967327 12.0883168,33.8458416 12.0883168,33.5338614 C12.0883168,33.2218812 12.2832673,33.0659406 12.5172277,33.1828713 L18.6784158,36.3024752 C18.9123762,36.419505 19.1073267,36.770396 19.1073267,37.0823762 C19.1074257,37.4333663 18.9123762,37.550297 18.6784158,37.4333663 Z" id="Shape" fill="#F2F2F2"></path>
            </g>
        </g>
    </g>
</svg>