<?xml version="1.0" encoding="UTF-8"?>
<svg width="47px" height="40px" viewBox="0 0 47 40" version="1.1" xmlns="http://www.w3.org/2000/svg" xmlns:xlink="http://www.w3.org/1999/xlink">
    <!-- Generator: Sketch 43.1 (39012) - http://www.bohemiancoding.com/sketch -->
    <title>8</title>
    <desc>Created with Sketch.</desc>
    <defs></defs>
    <g id="Sales-page" stroke="none" stroke-width="1" fill="none" fill-rule="evenodd">
        <g id="Desktop-HD-Copy-42" transform="translate(-1077.000000, -2141.000000)" fill-rule="nonzero">
            <g id="8" transform="translate(1077.000000, 2141.000000)">
                <g id="Group">
                    <path d="M44.2862305,29.453125 C44.2862305,30.0711914 43.7853516,30.5720703 43.1671875,30.5720703 L1.11904297,30.5720703 C0.500976562,30.5720703 0,30.0710938 0,29.453125 L0,1.18144531 C0,0.563671875 0.500976562,0.0625 1.11904297,0.0625 L43.1671875,0.0625 C43.7853516,0.0625 44.2862305,0.563769531 44.2862305,1.18144531 L44.2862305,29.453125 L44.2862305,29.453125 Z" id="Shape" fill="#E2E5E7"></path>
                    <path d="M27.1657227,30.572168 L22.1429688,30.572168 L17.1201172,30.572168 C17.1201172,30.572168 16.9166992,33.9290039 16.5097656,34.640918 L22.1429687,34.640918 L27.7760742,34.640918 C27.3692383,33.9289062 27.1657227,30.572168 27.1657227,30.572168 Z" id="Shape" fill="#D1D5D5"></path>
                    <path d="M28.7169922,34.9206055 C28.1066406,34.8442383 27.7760742,34.6408203 27.7760742,34.6408203 L22.1429688,34.6408203 L16.5097656,34.6408203 C16.5097656,34.6408203 16.1792969,34.8442383 15.5689453,34.9206055 C14.9586914,34.9970703 14.5517578,35.0477539 14.5517578,35.3530273 L22.1428711,35.3530273 L29.7339844,35.3530273 C29.7341797,35.0477539 29.3272461,34.997168 28.7169922,34.9206055 Z" id="Shape" fill="#C6CBCB"></path>
                    <path d="M43.1671875,0.0625 L1.11904297,0.0625 C0.500976562,0.0625 0,0.563671875 0,1.18144531 L0,26.5712891 L44.2862305,26.5712891 L44.2862305,1.18144531 C44.2862305,0.563671875 43.7853516,0.0625 43.1671875,0.0625 Z M42.4532227,24.980957 L20.228418,24.980957 L1.8328125,24.980957 L1.8328125,1.65292969 L34.4923828,1.65292969 L42.4533203,1.65292969 L42.4532227,24.980957 L42.4532227,24.980957 Z" id="Shape" fill="#2D404E"></path>
                    <polygon id="Shape" fill="#E6E9ED" points="1.8328125 1.65292969 1.8328125 24.980957 20.228418 24.980957 42.4532227 24.980957 42.4532227 1.65292969 34.4923828 1.65292969"></polygon>
                    <path d="M27.1657227,30.572168 L22.1429687,30.572168 L17.1201172,30.572168 C17.1201172,30.572168 17.0898437,31.0714844 17.0293945,31.725293 L27.256543,31.725293 C27.1960937,31.0713867 27.1657227,30.572168 27.1657227,30.572168 Z" id="Shape" fill="#C6CBCB"></path>
                    <circle id="Oval" fill="#2D404E" cx="22.1488281" cy="28.665625" r="1"></circle>
                </g>
                <g id="Group" transform="translate(28.000000, 16.000000)">
                    <g>
                        <path d="M17.940625,22.5601563 C18.4416992,22.5601563 18.8476562,22.2160156 18.8476562,21.7913086 L18.8476562,0.825390625 C18.8476562,0.400683594 18.4416992,0.0563476563 17.940625,0.0563476563 L0.948535156,0.0563476563 C0.447558594,0.0563476563 0.0415039062,0.400683594 0.0415039062,0.825390625 L0.0415039062,21.7913086 C0.0415039062,22.2160156 0.447558594,22.5601563 0.948535156,22.5601563 L17.940625,22.5601563 L17.940625,22.5601563 Z" id="Shape" fill="#2D404E"></path>
                        <rect id="Rectangle-path" fill="#FBBE3C" x="2.06728516" y="2.07783203" width="14.7545898" height="18.4607422"></rect>
                        <ellipse id="Oval" fill="#C6CBCB" cx="9.44453125" cy="21.5061523" rx="1" ry="1"></ellipse>
                        <ellipse id="Oval" fill="#D1D5D5" cx="9.44453125" cy="21.5061523" rx="1" ry="1"></ellipse>
                        <ellipse id="Oval" fill="#E2E5E7" cx="9.44453125" cy="21.5061523" rx="1" ry="1"></ellipse>
                    </g>
                </g>
                <g id="Group" transform="translate(4.000000, 23.000000)">
                    <path d="M1.41523437,16.9277344 C2.20332031,16.9279297 8.88232422,1.59550781 8.88232422,1.59550781 C8.88232422,1.59550781 8.88271484,0.0920898437 7.75273437,0.091796875 C6.87363281,0.0916015625 1.51748047,0.08984375 1.51748047,0.08984375 C0.491894531,0.089453125 0.100976562,0.780859375 0.100976562,1.35400391 C0.100683594,1.92705078 0.0970703125,15.3088867 0.0967773437,16.0250977 C0.0965820312,16.7416016 0.627148437,16.9276367 1.41523437,16.9277344 Z" id="Shape" fill="#C6CBCB"></path>
                    <path d="M8.87841797,15.8160156 C8.87832031,16.43125 8.41025391,16.9297852 7.83330078,16.9297852 L1.36523438,16.927832 C0.788183594,16.9276367 0.320703125,16.4285156 0.320898438,15.8132813 L0.324707031,1.59296875 C0.324902344,0.977636719 0.792871094,0.478710938 1.36982422,0.479101563 L7.83789063,0.481152344 C8.41474609,0.481347656 8.88261719,0.980175781 8.88232422,1.59570313 L8.87841797,15.8160156 Z" id="Shape" fill="#2D404E"></path>
                    <rect id="Rectangle-path" fill="#EC6C00" x="0.8703125" y="1.83642578" width="7.46269531" height="12.7339844"></rect>
                    <path d="M5.8171875,1.3138166 C5.8171875,1.45171052 5.74472656,1.56358671 5.65537109,1.56328062 L3.55166016,1.56205626 C3.46220703,1.56205626 3.38994141,1.45048615 3.38994141,1.31289832 L3.38994141,1.31289832 C3.38994141,1.17485136 3.46240234,1.06328125 3.55175781,1.06328125 L5.65537109,1.06419952 C5.74472656,1.06450561 5.8171875,1.17592268 5.8171875,1.3138166 L5.8171875,1.3138166 Z" id="Shape" fill="#586A73"></path>
                    <path d="M5.75410156,1.51139879 C5.72685547,1.5439975 5.69248047,1.56328125 5.65527344,1.56328125 L3.5515625,1.56205689 C3.46210938,1.56205689 3.38984375,1.45048664 3.38984375,1.31289864 L3.38984375,1.31289864 C3.38984375,1.1748515 3.46230469,1.06328125 3.55166016,1.06328125 C3.55166016,1.06328125 3.49023438,1.17775936 3.51503906,1.31289864 C3.53994141,1.44819095 3.78867188,1.45829196 3.90068359,1.45829196 C4.01269531,1.45859805 5.75410156,1.51139879 5.75410156,1.51139879 Z" id="Shape" fill="#2D404E"></path>
                    <g transform="translate(3.906250, 15.039062)">
                        <ellipse id="Oval" fill="#C6CBCB" cx="0.6890625" cy="0.699511719" rx="1" ry="1"></ellipse>
                        <path d="M1.22646484,0.699707031 C1.22646484,0.383105469 0.986035156,0.1265625 0.689257812,0.1265625 C0.392382812,0.126367187 0.151757812,0.382714844 0.151660156,0.699316406 C0.151660156,1.01582031 0.392089844,1.27226562 0.688964844,1.27226562 C0.985742187,1.27275391 1.22636719,1.01621094 1.22646484,0.699707031 Z" id="Shape" fill="#D1D5D5"></path>
                        <ellipse id="Oval" fill="#E2E5E7" cx="0.689160156" cy="0.699511719" rx="1" ry="1"></ellipse>
                    </g>
                </g>
            </g>
        </g>
    </g>
</svg>