<?xml version="1.0" encoding="UTF-8"?>
<svg width="50px" height="50px" viewBox="0 0 50 50" version="1.1" xmlns="http://www.w3.org/2000/svg" xmlns:xlink="http://www.w3.org/1999/xlink">
    <!-- Generator: Sketch 43.1 (39012) - http://www.bohemiancoding.com/sketch -->
    <title>8 copy</title>
    <desc>Created with Sketch.</desc>
    <defs></defs>
    <g id="Sales-page" stroke="none" stroke-width="1" fill="none" fill-rule="evenodd">
        <g id="8-copy" fill-rule="nonzero">
            <g id="Group" transform="translate(11.666667, 0.000000)">
                <g>
                    <path d="M36.1959978,45.7742301 C37.206937,45.7742301 38.0259731,45.0759737 38.0259731,44.2142493 L38.0259731,1.67470562 C38.0259731,0.812981205 37.206937,0.114328578 36.1959978,0.114328578 L1.91371128,0.114328578 C0.902969093,0.114328578 0.0837359512,0.812981205 0.0837359512,1.67470562 L0.0837359512,44.2142493 C0.0837359512,45.0759737 0.902969093,45.7742301 1.91371128,45.7742301 L36.1959978,45.7742301 L36.1959978,45.7742301 Z" id="Shape" fill="#656D78"></path>
                    <rect id="Rectangle-path" fill="#FBBE3C" x="4.17083847" y="4.21589108" width="29.7680321" height="37.4565784"></rect>
                    <ellipse id="Oval" fill="#C6CBCB" cx="19.054756" cy="43.6356714" rx="1.37918037" ry="1.38700181"></ellipse>
                    <ellipse id="Oval" fill="#D1D5D5" cx="19.054756" cy="43.6356714" rx="1.10511753" ry="1.11138474"></ellipse>
                    <ellipse id="Oval" fill="#E2E5E7" cx="19.054756" cy="43.6356714" rx="1" ry="1"></ellipse>
                </g>
            </g>
            <g id="Group" transform="translate(0.000000, 15.000000)">
                <path d="M18.0856662,32.2178096 C18.0854673,33.4710648 17.1319987,34.4865994 15.9567238,34.4865994 L2.78103299,34.4826208 C1.60555917,34.4822229 0.653284144,33.4654948 0.653682002,32.2122396 L0.661440249,3.24493634 C0.661838108,1.9914822 1.61510778,0.97515191 2.79038267,0.975947627 L15.9660735,0.980125145 C17.1411495,0.980523003 18.0942202,1.99665437 18.0936234,3.25050637 L18.0856662,32.2178096 Z" id="Shape" fill="#656D78"></path>
                <rect id="Rectangle-path" fill="#E6EAEA" x="2.26018157" y="3.74086733" width="14.2271412" height="25.9395978"></rect>
                <g transform="translate(7.957176, 30.635127)">
                    <ellipse id="Oval" fill="#C6CBCB" cx="1.40364583" cy="1.42493128" rx="1.28130425" ry="1.36684389"></ellipse>
                    <path d="M2.49835431,1.42532914 C2.49835431,0.780400029 2.00859013,0.2578125 1.40404369,0.2578125 C0.799298322,0.257414641 0.309136285,0.779604311 0.308937355,1.42453342 C0.308937355,2.0692636 0.798701534,2.5916522 1.4034469,2.5916522 C2.00799334,2.59264685 2.49815538,2.07005932 2.49835431,1.42532914 Z" id="Shape" fill="#D1D5D5"></path>
                    <ellipse id="Oval" fill="#E2E5E7" cx="1.40384476" cy="1.42493128" rx="1" ry="1"></ellipse>
                </g>
            </g>
        </g>
    </g>
</svg>