<?xml version="1.0" encoding="UTF-8"?>
<svg width="50px" height="39px" viewBox="0 0 50 39" version="1.1" xmlns="http://www.w3.org/2000/svg" xmlns:xlink="http://www.w3.org/1999/xlink">
    <!-- Generator: Sketch 43.1 (39012) - http://www.bohemiancoding.com/sketch -->
    <title>8</title>
    <desc>Created with Sketch.</desc>
    <defs></defs>
    <g id="Sales-page" stroke="none" stroke-width="1" fill="none" fill-rule="evenodd">
        <g id="Desktop-HD-Copy-42" transform="translate(-1077.000000, -2141.000000)">
            <g id="8" transform="translate(1077.000000, 2141.000000)">
                <g id="Group">
                    <path d="M44.2862305,29.453125 C44.2862305,30.0711914 43.7853516,30.5720703 43.1671875,30.5720703 L1.11904297,30.5720703 C0.500976562,30.5720703 0,30.0710938 0,29.453125 L0,1.18144531 C0,0.563671875 0.500976562,0.0625 1.11904297,0.0625 L43.1671875,0.0625 C43.7853516,0.0625 44.2862305,0.563769531 44.2862305,1.18144531 L44.2862305,29.453125 L44.2862305,29.453125 Z" id="Shape" fill="#E2E5E7" fill-rule="nonzero"></path>
                    <path d="M27.1657227,30.572168 L22.1429688,30.572168 L17.1201172,30.572168 C17.1201172,30.572168 16.9166992,33.9290039 16.5097656,34.640918 L22.1429687,34.640918 L27.7760742,34.640918 C27.3692383,33.9289063 27.1657227,30.572168 27.1657227,30.572168 Z" id="Shape" fill="#D1D5D5" fill-rule="nonzero"></path>
                    <path d="M28.7169922,34.9206055 C28.1066406,34.8442383 27.7760742,34.6408203 27.7760742,34.6408203 L22.1429688,34.6408203 L16.5097656,34.6408203 C16.5097656,34.6408203 16.1792969,34.8442383 15.5689453,34.9206055 C14.9586914,34.9970703 14.5517578,35.0477539 14.5517578,35.3530273 L22.1428711,35.3530273 L29.7339844,35.3530273 C29.7341797,35.0477539 29.3272461,34.997168 28.7169922,34.9206055 Z" id="Shape" fill="#C6CBCB" fill-rule="nonzero"></path>
                    <path d="M43.1671875,0.0625 L1.11904297,0.0625 C0.500976562,0.0625 0,0.563671875 0,1.18144531 L0,26.5712891 L44.2862305,26.5712891 L44.2862305,1.18144531 C44.2862305,0.563671875 43.7853516,0.0625 43.1671875,0.0625 Z M42.4532227,24.980957 L20.228418,24.980957 L1.8328125,24.980957 L1.8328125,1.65292969 L34.4923828,1.65292969 L42.4533203,1.65292969 L42.4532227,24.980957 L42.4532227,24.980957 Z" id="Shape" fill="#2D404E" fill-rule="nonzero"></path>
                    <polygon id="Shape" fill="#E2E5E7" fill-rule="nonzero" points="1.8328125 1.65292969 1.8328125 24.980957 20.228418 24.980957 42.4532227 24.980957 42.4532227 1.65292969 34.4923828 1.65292969"></polygon>
                    <path d="M27.1657227,30.572168 L22.1429688,30.572168 L17.1201172,30.572168 C17.1201172,30.572168 17.0898438,31.0714844 17.0293945,31.725293 L27.256543,31.725293 C27.1960938,31.0713867 27.1657227,30.572168 27.1657227,30.572168 Z" id="Shape" fill="#C6CBCB" fill-rule="nonzero"></path>
                    <ellipse id="Oval" fill="#2D404E" fill-rule="nonzero" cx="22.1488281" cy="28.665625" rx="1" ry="1"></ellipse>
                    <rect id="Rectangle-path" fill="#D1D5D5" fill-rule="nonzero" x="3.79824219" y="6.66777344" width="36.7986328" height="8.203125"></rect>
                    <rect id="Rectangle-path" fill="#D1D5D5" fill-rule="nonzero" x="3.79824219" y="16.56875" width="5.62373047" height="5.62363281"></rect>
                    <rect id="Rectangle-path" fill="#D1D5D5" fill-rule="nonzero" x="11.5920898" y="16.56875" width="5.62363281" height="5.62363281"></rect>
                    <rect id="Rectangle-path" fill="#D1D5D5" fill-rule="nonzero" x="19.3858398" y="16.56875" width="5.62363281" height="5.62363281"></rect>
                    <rect id="Rectangle-path" fill="#D1D5D5" fill-rule="nonzero" x="27.1794922" y="16.56875" width="5.62363281" height="5.62363281"></rect>
                    <rect id="Rectangle-path" fill="#D1D5D5" fill-rule="nonzero" x="34.9733398" y="16.56875" width="5.62363281" height="5.62363281"></rect>
                    <g transform="translate(10.449219, 16.503906)"></g>
                    <path d="M37.0644531,23.3269531 C37.0644531,23.4713867 36.9474609,23.5883789 36.803125,23.5883789 L7.48310547,23.5883789 C7.33867187,23.5883789 7.22167969,23.4713867 7.22167969,23.3269531 L7.22167969,23.3269531 C7.22167969,23.1826172 7.33867187,23.0657227 7.48310547,23.0657227 L36.803125,23.0657227 C36.9473633,23.0658203 37.0644531,23.1827148 37.0644531,23.3269531 L37.0644531,23.3269531 Z" id="Shape" fill="#D1D5D5" fill-rule="nonzero"></path>
                    <path d="M9.50058594,4.29638672 C9.50058594,4.49580078 9.33886719,4.65732422 9.13964844,4.65732422 L4.15917969,4.65732422 C3.95996094,4.65732422 3.79833984,4.49580078 3.79833984,4.29638672 L3.79833984,4.29638672 C3.79833984,4.09716797 3.95996094,3.93554688 4.15917969,3.93554688 L9.13964844,3.93554688 C9.33886719,3.93554687 9.50058594,4.09716797 9.50058594,4.29638672 L9.50058594,4.29638672 Z" id="Shape" fill="#EB8923" fill-rule="nonzero"></path>
                    <path d="M37.3730469,4.29638672 C37.3730469,4.49580078 37.2114258,4.65732422 37.0120117,4.65732422 L35.924707,4.65732422 C35.7253906,4.65732422 35.5636719,4.49580078 35.5636719,4.29638672 L35.5636719,4.29638672 C35.5636719,4.09716797 35.7253906,3.93554688 35.924707,3.93554688 L37.0120117,3.93554688 C37.2114258,3.93554687 37.3730469,4.09716797 37.3730469,4.29638672 L37.3730469,4.29638672 Z" id="Shape" fill="#D1D5D5" fill-rule="nonzero"></path>
                    <path d="M34.1490234,4.29638672 C34.1490234,4.49580078 33.9875,4.65732422 33.7880859,4.65732422 L32.7006836,4.65732422 C32.5013672,4.65732422 32.3397461,4.49580078 32.3397461,4.29638672 L32.3397461,4.29638672 C32.3397461,4.09716797 32.5013672,3.93554688 32.7006836,3.93554688 L33.7880859,3.93554688 C33.9875,3.93554687 34.1490234,4.09716797 34.1490234,4.29638672 L34.1490234,4.29638672 Z" id="Shape" fill="#D1D5D5" fill-rule="nonzero"></path>
                    <path d="M30.925,4.29638672 C30.925,4.49580078 30.7634766,4.65732422 30.5640625,4.65732422 L29.4766602,4.65732422 C29.2774414,4.65732422 29.1157227,4.49580078 29.1157227,4.29638672 L29.1157227,4.29638672 C29.1157227,4.09716797 29.2774414,3.93554688 29.4766602,3.93554688 L30.5640625,3.93554688 C30.7634766,3.93554687 30.925,4.09716797 30.925,4.29638672 L30.925,4.29638672 Z" id="Shape" fill="#D1D5D5" fill-rule="nonzero"></path>
                    <path d="M27.7011719,4.29638672 C27.7011719,4.49580078 27.5395508,4.65732422 27.3402344,4.65732422 L26.252832,4.65732422 C26.0535156,4.65732422 25.8918945,4.49580078 25.8918945,4.29638672 L25.8918945,4.29638672 C25.8918945,4.09716797 26.0535156,3.93554688 26.252832,3.93554688 L27.3402344,3.93554688 C27.5395508,3.93554687 27.7011719,4.09716797 27.7011719,4.29638672 L27.7011719,4.29638672 Z" id="Shape" fill="#D1D5D5" fill-rule="nonzero"></path>
                    <path d="M20.8227539,10.0413086 C20.8227539,9.28203125 21.4383789,8.66650391 22.1975586,8.66650391 C22.9568359,8.66650391 23.5723633,9.28203125 23.5723633,10.0413086 C23.5723633,10.8005859 22.1975586,12.871875 22.1975586,12.871875 C22.1975586,12.871875 20.8227539,10.8005859 20.8227539,10.0413086 Z" id="Shape" fill="#EB8923" fill-rule="nonzero"></path>
                    <path d="M39.3146484,4.05507812 C39.3146484,4.05507812 39.3755859,3.67363281 39.7052734,3.67363281 C40.0351562,3.67363281 40.0961914,4.05507812 40.0961914,4.05507812 C40.0961914,4.05507812 40.5969727,4.00341797 40.5969727,4.33320312 C40.5969727,4.66298828 40.0839844,4.58964844 40.0839844,4.58964844 C40.0839844,4.58964844 39.9496094,4.91943359 39.6808594,4.91943359 C39.412207,4.91943359 39.3146484,4.56513672 39.3146484,4.56513672 C39.3146484,4.56513672 38.8177734,4.62636719 38.8177734,4.33320312 C38.8177734,4.04003906 39.3146484,4.05507812 39.3146484,4.05507812 Z" id="Shape" fill="#EB8923" fill-rule="nonzero"></path>
                </g>
                <g id="Group" opacity="0.21" fill-rule="nonzero" fill="#E2E5E7">
                    <path d="M1.11904297,0.0625 C0.500976562,0.0625 0,0.563671875 0,1.18144531 L0,26.5712891 L10.8425781,26.5712891 L29.2556641,0.0625 L1.11904297,0.0625 L1.11904297,0.0625 Z" id="Shape"></path>
                </g>
                <g id="Group" transform="translate(31.152344, 12.792969)" fill-rule="nonzero">
                    <g>
                        <path d="M17.940625,22.5601562 C18.4416992,22.5601562 18.8476562,22.2160156 18.8476562,21.7913086 L18.8476562,0.825390625 C18.8476562,0.400683594 18.4416992,0.0563476562 17.940625,0.0563476562 L0.948535156,0.0563476562 C0.447558594,0.0563476562 0.0415039063,0.400683594 0.0415039063,0.825390625 L0.0415039063,21.7913086 C0.0415039063,22.2160156 0.447558594,22.5601562 0.948535156,22.5601562 L17.940625,22.5601562 L17.940625,22.5601562 Z" id="Shape" fill="#2D404E"></path>
                        <rect id="Rectangle-path" fill="#E2E5E7" x="2.06728516" y="2.07783203" width="14.7545898" height="18.4607422"></rect>
                        <ellipse id="Oval" fill="#C6CBCB" cx="9.44453125" cy="21.5061523" rx="1" ry="1"></ellipse>
                        <ellipse id="Oval" fill="#D1D5D5" cx="9.44453125" cy="21.5061523" rx="1" ry="1"></ellipse>
                        <ellipse id="Oval" fill="#E2E5E7" cx="9.44453125" cy="21.5061523" rx="1" ry="1"></ellipse>
                    </g>
                    <rect id="Rectangle-path" fill="#D1D5D5" x="2.77802734" y="6.58759766" width="13.4175781" height="6.09462891"></rect>
                    <rect id="Rectangle-path" fill="#D1D5D5" x="2.77802734" y="13.7040039" width="5.62373047" height="4.57304687"></rect>
                    <rect id="Rectangle-path" fill="#D1D5D5" x="10.5716797" y="13.7040039" width="5.62392578" height="4.57304687"></rect>
                    <path d="M16.1955078,19.287207 C16.1955078,19.4316406 16.1428711,19.5486328 16.0780273,19.5486328 L2.89560547,19.5486328 C2.83056641,19.5486328 2.77802734,19.4316406 2.77802734,19.287207 L2.77802734,19.287207 C2.77802734,19.1428711 2.83056641,19.0259766 2.89560547,19.0259766 L16.0780273,19.0259766 C16.1428711,19.0260742 16.1955078,19.1430664 16.1955078,19.287207 L16.1955078,19.287207 Z" id="Shape" fill="#D1D5D5"></path>
                    <path d="M8.38173828,4.13662109 C8.38173828,4.3359375 8.2203125,4.49746094 8.02089844,4.49746094 L3.040625,4.49746094 C2.84121094,4.49746094 2.6796875,4.3359375 2.6796875,4.13662109 L2.6796875,4.13662109 C2.6796875,3.93730469 2.84121094,3.77578125 3.040625,3.77578125 L8.02089844,3.77578125 C8.22021484,3.77578125 8.38173828,3.93730469 8.38173828,4.13662109 L8.38173828,4.13662109 Z" id="Shape" fill="#EB8923"></path>
                    <g opacity="0.22" id="Shape" fill="#E2E5E7">
                        <path d="M0.04140625,0.825292969 C0.04140625,0.400585938 0.447460937,0.05625 0.9484375,0.05625 L17.9405273,0.05625 C18.4416016,0.05625 18.8475586,0.400585938 18.8475586,0.825292969 L18.8475586,3.25546875 L0.04140625,17.4902344 L0.04140625,0.825292969 Z"></path>
                    </g>
                    <path d="M8.60615234,9.16865234 C8.60615234,8.68232422 9.00039062,8.28798828 9.48681641,8.28798828 C9.97324219,8.28798828 10.3674805,8.68222656 10.3674805,9.16865234 C10.3674805,9.65507813 9.48681641,10.9816406 9.48681641,10.9816406 C9.48681641,10.9816406 8.60615234,9.65507812 8.60615234,9.16865234 Z" id="Shape" fill="#EB8923"></path>
                    <path d="M15.2683594,3.98203125 C15.2683594,3.98203125 15.3074219,3.73759766 15.5185547,3.73759766 C15.7298828,3.73759766 15.7689453,3.98203125 15.7689453,3.98203125 C15.7689453,3.98203125 16.0896484,3.94882813 16.0896484,4.16015625 C16.0896484,4.37138672 15.7611328,4.32441406 15.7611328,4.32441406 C15.7611328,4.32441406 15.675,4.53564453 15.502832,4.53564453 C15.3307617,4.53564453 15.2682617,4.30869141 15.2682617,4.30869141 C15.2682617,4.30869141 14.9500977,4.34794922 14.9500977,4.16015625 C14.9500977,3.97236328 15.2683594,3.98203125 15.2683594,3.98203125 Z" id="Shape" fill="#EB8923"></path>
                </g>
                <g id="Group" transform="translate(2.929688, 22.070312)" fill-rule="nonzero">
                    <path d="M1.41523438,16.9277344 C2.20332031,16.9279297 8.88232422,1.59550781 8.88232422,1.59550781 C8.88232422,1.59550781 8.88271484,0.0920898437 7.75273438,0.091796875 C6.87363281,0.0916015625 1.51748047,0.08984375 1.51748047,0.08984375 C0.491894531,0.089453125 0.100976562,0.780859375 0.100976562,1.35400391 C0.100683594,1.92705078 0.0970703125,15.3088867 0.0967773437,16.0250977 C0.0965820313,16.7416016 0.627148437,16.9276367 1.41523438,16.9277344 Z" id="Shape" fill="#C6CBCB"></path>
                    <path d="M8.87841797,15.8160156 C8.87832031,16.43125 8.41025391,16.9297852 7.83330078,16.9297852 L1.36523438,16.927832 C0.788183594,16.9276367 0.320703125,16.4285156 0.320898438,15.8132812 L0.324707031,1.59296875 C0.324902344,0.977636719 0.792871094,0.478710937 1.36982422,0.479101563 L7.83789062,0.481152344 C8.41474609,0.481347656 8.88261719,0.980175781 8.88232422,1.59570313 L8.87841797,15.8160156 Z" id="Shape" fill="#2D404E"></path>
                    <rect id="Rectangle-path" fill="#E2E5E7" x="0.8703125" y="1.83642578" width="7.46269531" height="12.7339844"></rect>
                    <g transform="translate(3.906250, 15.039062)">
                        <ellipse id="Oval" fill="#C6CBCB" cx="0.6890625" cy="0.699511719" rx="1" ry="1"></ellipse>
                        <path d="M1.22646484,0.699707031 C1.22646484,0.383105469 0.986035156,0.1265625 0.689257812,0.1265625 C0.392382812,0.126367188 0.151757812,0.382714844 0.151660156,0.699316406 C0.151660156,1.01582031 0.392089844,1.27226563 0.688964844,1.27226563 C0.985742187,1.27275391 1.22636719,1.01621094 1.22646484,0.699707031 Z" id="Shape" fill="#D1D5D5"></path>
                        <ellipse id="Oval" fill="#E2E5E7" cx="0.689160156" cy="0.699511719" rx="1" ry="1"></ellipse>
                    </g>
                    <rect id="Rectangle-path" fill="#D1D5D5" x="1.33203125" y="6.52519531" width="6.31494141" height="2.56503906"></rect>
                    <g transform="translate(1.269531, 9.667969)" id="Rectangle-path" fill="#D1D5D5">
                        <rect x="0.0625" y="0.0450195313" width="2.81181641" height="2.81181641"></rect>
                        <rect x="3.565625" y="0.0450195313" width="2.81181641" height="2.81181641"></rect>
                    </g>
                    <g transform="translate(2.246094, 2.441406)" id="Shape" fill="#EB8923">
                        <path d="M4.67050781,0.344042969 C4.67050781,0.505859375 4.53925781,0.637207031 4.37734375,0.637207031 L0.333789062,0.637207031 C0.171875,0.637207031 0.0407226563,0.505859375 0.0407226563,0.344042969 L0.0407226563,0.344042969 C0.0407226563,0.182324219 0.171875,0.0509765625 0.333789062,0.0509765625 L4.37734375,0.0509765625 C4.53925781,0.0510742188 4.67050781,0.182421875 4.67050781,0.344042969 L4.67050781,0.344042969 Z"></path>
                    </g>
                    <g opacity="0.3" transform="translate(0.292969, 0.390625)" id="Shape" fill="#E2E5E7">
                        <path d="M8.58935547,1.20488281 C8.58964844,0.589355469 8.12177734,0.0905273438 7.54492187,0.0903320313 L1.07685547,0.08828125 C0.499902344,0.087890625 0.0319335937,0.586816406 0.0317382812,1.20214844 L0.0287109375,12.6314453 L8.58935547,1.44990234 L8.58935547,1.20488281 Z"></path>
                    </g>
                    <path d="M4.03886719,7.56884766 C4.03886719,7.32001953 4.24052734,7.11826172 4.48945313,7.11826172 C4.73837891,7.11826172 4.94003906,7.32001953 4.94003906,7.56884766 C4.94003906,7.81777344 4.48945313,8.496875 4.48945313,8.496875 C4.48945313,8.496875 4.03886719,7.81787109 4.03886719,7.56884766 Z" id="Shape" fill="#EB8923"></path>
                    <path d="M4.30527344,4.28984375 C4.30527344,4.28984375 4.33388672,4.11083984 4.48857422,4.11083984 C4.64335937,4.11083984 4.67207031,4.28984375 4.67207031,4.28984375 C4.67207031,4.28984375 4.90693359,4.26552734 4.90693359,4.4203125 C4.90693359,4.57509766 4.66621094,4.540625 4.66621094,4.540625 C4.66621094,4.540625 4.603125,4.6953125 4.47705078,4.6953125 C4.35097656,4.6953125 4.30517578,4.52910156 4.30517578,4.52910156 C4.30517578,4.52910156 4.07197266,4.5578125 4.07197266,4.4203125 C4.07197266,4.2828125 4.30527344,4.28984375 4.30527344,4.28984375 Z" id="Shape" fill="#EB8923"></path>
                </g>
            </g>
        </g>
    </g>
</svg>