<?xml version="1.0" encoding="UTF-8" standalone="no"?>
<svg width="120px" height="40px" viewBox="0 0 120 40" version="1.1" xmlns="http://www.w3.org/2000/svg" xmlns:xlink="http://www.w3.org/1999/xlink">
    <!-- Generator: Sketch 3.7.1 (28215) - http://www.bohemiancoding.com/sketch -->
    <title>Group Copy</title>
    <desc>Created with Sketch.</desc>
    <defs></defs>
    <g id="Page-1" stroke="none" stroke-width="1" fill="none" fill-rule="evenodd">
        <g id="Desktop-Copy" transform="translate(-452.000000, -116.000000)" fill="#CD6799">
            <g id="Group-Copy" transform="translate(452.000000, 116.000000)">
                <path d="M86.1925148,30.1677842 C85.6896358,30.6972859 85.0924759,31.1814941 84.4010173,31.6204232 C83.7095586,32.0593523 83.0425555,32.2788135 82.3999879,32.2788135 C81.7574203,32.2788135 81.4361413,32.0419347 81.4361413,31.56817 C81.4361413,31.191945 81.5758278,30.7251544 81.855205,30.1677842 C81.9948937,29.9030333 82.1171194,29.676605 82.2218858,29.4884925 C82.3266523,29.3003801 82.4733231,29.0635013 82.6619027,28.777849 C82.8504824,28.4921967 82.9657237,28.3075706 83.0076303,28.2239651 C86.3322193,22.5109198 87.9944889,19.4941984 87.9944889,19.1737105 C87.9944889,18.8532226 87.8198807,18.4979044 87.4706592,18.1077452 C87.1214376,17.717586 86.7268232,17.5225094 86.2868041,17.5225094 C85.846785,17.5225094 85.2112113,17.8255749 84.3800641,18.4317151 C83.5489168,19.0378552 82.8434999,19.6509533 82.2637922,20.2710278 C81.6840845,20.8911022 81.3942349,21.2742885 81.3942349,21.4205982 C81.3942349,21.5669079 81.5374136,21.7933362 81.8237753,22.0998898 C82.1101369,22.4064435 82.2533156,22.6119707 82.2533156,22.7164776 C82.2533156,22.8209845 81.8691777,23.4933023 81.1008903,24.7334512 C80.3326029,25.9736 79.5643271,27.3252027 78.7960397,28.7882996 C78.652512,29.0616284 78.522391,29.322799 78.4056767,29.5718116 C78.1483452,29.8472871 77.887341,30.1190982 77.6226613,30.3872476 C77.1756577,30.840111 76.6658019,31.2650994 76.0930786,31.6622257 C75.5203553,32.059352 75.0244682,32.2579122 74.6054023,32.2579122 C74.1863365,32.2579122 73.9768067,31.8747259 73.9768067,31.1083418 C73.9768067,30.8575252 73.9977597,30.6624485 74.0396663,30.5231059 C74.2491992,29.3944311 74.7136569,28.032378 75.4330532,26.4369056 C76.1524496,24.8414332 76.8089762,23.5316327 77.4026528,22.5074648 C77.9963294,21.4832969 78.3839595,20.8806494 78.5655547,20.699504 C78.7471499,20.5183587 78.8379461,20.2327107 78.8379461,19.8425515 C78.8379461,19.1179702 78.3071373,18.7556849 77.2455039,18.7556849 C76.7845315,18.7556849 76.4388073,18.8218716 76.2083211,18.9542471 C75.9778349,19.0866225 75.6949697,19.4036221 75.3597171,19.9052554 C75.2339973,19.5290304 74.9336713,19.2155143 74.45873,18.9646977 C73.9837887,18.7138811 73.3691681,18.5884747 72.6148496,18.5884747 C70.659209,18.5884747 68.5220053,19.4941878 66.2031743,21.3056412 C65.0996343,22.1695651 64.086907,23.1275309 63.1649622,24.1795673 C62.2430174,25.2316036 61.4991867,26.3950966 60.9334478,27.6700811 C60.601643,28.4178572 60.3671411,29.1632301 60.2299404,29.9062077 C60.1422258,29.9839799 60.0519538,30.0642049 59.9591246,30.1468829 C59.3724324,30.6624504 58.7298744,31.1396915 58.0314314,31.5786206 C57.3329883,32.0175497 56.6974147,32.2370109 56.1246914,32.2370109 C55.551968,32.2370109 55.2656107,31.965297 55.2656107,31.421861 C55.2656107,31.1571101 55.293548,30.8157259 55.3494234,30.3976982 C55.4751432,29.4780373 56.5542215,27.18937 58.5866908,23.5316275 C60.6191601,19.8738851 62.2011099,17.1811304 63.3325877,15.4532826 C63.6678404,15.4393483 65.4558278,15.2721397 68.6966036,14.9516518 C70.8128755,14.9516518 70.9959458,11.9194771 69.1051334,11.9194771 C67.2143211,11.9194771 66.7689158,11.9627683 65.6793446,12.0463738 C65.7072824,11.9906368 65.9203043,11.6527361 66.3184168,11.0326617 C66.7165294,10.4125873 67.0622535,9.85870889 67.3555996,9.3710099 C67.6489457,8.88331092 67.6657723,8.74397147 67.5396132,8.17065935 C67.4134541,7.59734722 66.5970676,7.5026471 65.9579954,7.61847464 C65.3189232,7.73430217 64.7259768,8.24233824 64.2859577,8.74397148 C63.8459386,9.24560473 63.0392489,10.3742626 61.8658646,12.129979 C61.8658646,12.129979 57.4920955,12.6094235 56.1246914,13.1854936 C54.7572872,13.7615637 54.2079822,14.3927492 54.0869448,14.8461754 C53.9659074,15.2996015 54.1760431,15.6170085 54.5532023,15.7772524 C54.9303616,15.9374964 56.1246914,16.0043972 58.7438397,15.7459005 L59.5400608,15.6413941 C58.0314238,18.0102178 56.5228094,20.5462144 55.0141724,23.2494603 C54.0922276,24.9076368 53.3274439,26.4717337 52.7197985,27.9417978 C52.6984447,27.9934585 52.6774618,28.0448482 52.6568498,28.0959669 C52.5829622,28.1143462 52.5166404,28.1465615 52.4578836,28.1926131 C52.3601016,28.2692515 52.1051737,28.5305149 51.6930923,28.9764112 C51.2810109,29.4223074 50.8654435,29.8612299 50.4463777,30.2931918 C49.300931,31.4776037 48.3231254,32.1255369 47.5129315,32.2370109 C47.0659279,32.2370109 46.8424295,31.9443959 46.8424295,31.3591572 C46.8424295,30.3280222 47.6665799,28.1125086 49.3149056,24.7125499 C49.4266564,24.4896018 49.974926,23.5351195 50.9597307,21.8490745 C51.9445355,20.1630294 52.4997894,19.1249428 52.6255091,18.7347836 C52.6255091,18.6093753 52.5696345,18.4351997 52.4578836,18.2122516 C52.3461327,17.9893035 52.2483522,17.8708641 52.164539,17.8569299 C52.0807258,17.8429956 51.9619923,17.8360286 51.8083348,17.8360286 C50.8584523,17.8638971 50.0831921,18.0729078 49.4825311,18.463067 C49.286967,18.5884753 48.9901332,18.9298595 48.5920206,19.4872297 C48.1939081,20.0446 47.785325,20.7308519 47.3662592,21.5460059 C46.9471933,22.3611599 45.4036573,24.2178718 42.7356048,27.1161972 C40.0675523,30.0145226 38.3982985,31.4636636 37.7277931,31.4636636 C37.5741356,31.4636636 37.4973081,31.3591582 37.4973081,31.1501444 C37.4973081,30.3280232 38.8802046,27.4227742 41.6460391,22.4343103 C42.5819528,20.7621995 43.0499026,19.8216513 43.0499026,19.6126374 C43.0499026,19.4036236 42.8962475,19.1319096 42.5889325,18.7974875 C42.2816176,18.4630653 41.925417,18.2993403 41.52032,18.3063074 C41.115223,18.3132745 40.6996556,18.5919555 40.2736053,19.1423586 C39.8475551,19.6927618 39.309762,20.5392552 38.6602099,21.6818642 C38.0106579,22.8244733 37.4868335,23.7336699 37.0887209,24.4094813 C36.6906084,25.0852928 36.4007589,25.590402 36.2191637,25.9248242 C36.0375685,26.2592463 35.7616876,26.7957072 35.3915128,27.5342228 C35.0213379,28.2727384 34.7419649,28.8928035 34.5533853,29.3944368 C34.3648057,29.89607 34.1867053,30.4638825 34.019079,31.0978911 C33.8514527,31.7318998 33.7676408,32.3449979 33.7676408,32.9372038 C33.7676408,33.5294098 34.0086,34.1041892 34.4905257,34.6615595 C34.9724514,35.2189298 35.6045329,35.4976107 36.3867892,35.4976107 C38.3563986,35.4976107 41.0733013,33.3308663 44.5375789,28.9973124 C43.9369179,30.0841845 43.6365919,31.1919413 43.6365919,32.3206161 C43.6365919,33.4492909 43.9578709,34.2400481 44.6004385,34.6929114 C45.2430061,35.1457748 45.9414387,35.372203 46.6957572,35.372203 C47.925017,35.372203 49.2241016,34.8113576 50.59305,33.68965 C51.0766143,33.2934204 51.5000437,32.9184914 51.8633395,32.5648617 C51.9699724,33.1971203 52.2065671,33.725323 52.5731261,34.1494781 C53.0969584,34.7556183 53.9176167,35.1631892 55.0351256,35.372203 C55.2167208,35.4140058 55.4122819,35.4349069 55.6218149,35.4349069 C56.5856663,35.4349069 57.5495033,35.1283578 58.5133547,34.5152505 C59.0626844,34.1658211 59.6846068,33.7190836 60.3791285,33.1750331 C60.571177,33.6612429 60.8572234,34.0801125 61.237269,34.4316454 C61.83793,35.0029499 62.6131902,35.2885979 63.5630728,35.2885979 C64.5129553,35.2885979 65.7387045,34.7660711 67.2403571,33.7210019 C68.7420097,32.6759326 70.0725237,31.4009672 71.2319392,29.8960675 C70.952562,30.5231091 70.8128755,31.2511631 70.8128755,32.0802513 C70.8128755,32.9093396 71.0782799,33.6652617 71.6090966,34.3480403 C72.1399133,35.0308189 72.9675559,35.372203 74.0920492,35.372203 C75.2165426,35.372203 76.4667369,34.8148411 77.8426697,33.7001006 C77.9232238,33.634838 78.0021141,33.5701247 78.0793406,33.5059607 C78.2697819,33.8027722 78.5226501,34.0973992 78.8379461,34.3898429 C79.6341712,35.1283585 80.5840395,35.4976107 81.6875795,35.4976107 C82.7605199,35.4976107 84.0183108,35.0925712 85.4609881,34.2824804 C85.5519669,34.319164 85.6526289,34.3584351 85.7629744,34.4002935 C86.258869,34.588406 86.6569756,34.6824608 86.9573061,34.6824608 C87.2576366,34.6824608 87.6243137,34.3828788 88.0573484,33.7837057 C89.5520166,31.7771727 90.9384052,30.0737354 92.216556,28.6733426 C93.4947068,27.2729498 95.0452272,25.6879519 96.8681636,23.9183012 C98.6911,22.1486506 99.8330372,21.2429375 100.29401,21.2011348 C99.3022203,22.4552177 98.7853802,23.5420734 98.7853802,24.5035371 C98.7853802,24.9354991 98.9076059,25.3117184 99.152061,25.6322063 C99.396516,25.9526942 99.738748,26.1129357 100.178767,26.1129357 C100.618786,26.1129357 101.013401,25.8899909 101.362622,25.4440947 C102.019159,24.5662366 102.735052,23.4898314 103.510324,22.2148469 C104.285596,20.9398624 104.673226,20.0306658 104.673226,19.4872297 C104.673226,18.9437937 104.488141,18.5013877 104.117966,18.1599984 C103.747791,17.8186091 103.276349,17.647917 102.703626,17.647917 C100.384795,17.647917 97.5770962,19.5150794 94.280445,23.2494603 L95.1604788,21.9326796 C96.3757697,20.1212262 96.9834061,18.888063 96.9834061,18.2331529 C96.9834061,17.8151252 96.8157823,17.6061145 96.4805296,17.6061145 C94.9858615,17.6061145 93.9242439,18.0032348 93.2956452,18.7974875 C92.9603925,19.2155152 92.5273643,19.8843495 91.9965476,20.8040104 C91.7451081,21.2499066 90.9768322,22.5457731 89.691697,24.6916486 C88.4352353,26.789646 87.5025848,28.3681639 86.8937188,29.4272471 C86.6813351,29.6475361 86.4476004,29.8943817 86.1925148,30.1677842 Z M74.45873,21.0757271 C72.0700548,21.0757271 69.5976034,22.3994616 67.0413018,25.0469704 C66.1333258,25.9944999 65.2986989,27.1301248 64.537396,28.4538791 C63.776093,29.7776335 63.3954473,30.6833466 63.3954473,31.1710456 C63.3954473,31.6587446 63.5351338,31.9025905 63.814511,31.9025905 C64.2056391,31.9025905 65.2951939,31.1327343 67.0832082,29.5929989 C68.8712224,28.0532636 70.0585578,26.9211222 70.64525,26.1965408 C71.2878176,25.3883539 72.5589649,23.6814331 74.45873,21.0757271 L74.45873,21.0757271 Z" id="Combined-Shape-Copy"></path>
                <path d="M12.6990216,28.2854849 C9.17169125,29.3174128 6.17353804,29.9700376 5.53632236,32.2774378 C4.89910667,34.584838 8.77252409,34.5710263 10.5146609,34.5710263 C12.2567976,34.5710263 14.1731193,34.312585 16.2636834,33.7956947 C18.3542475,33.2788043 20.1722963,32.6460687 21.7178843,31.8974689 C23.2634723,31.148869 24.5410201,30.3646333 25.550566,29.5447383 C26.5601119,28.7248432 27.0648773,28.0119017 27.0648773,27.4058923 C27.0648773,26.6394687 26.1714872,25.9265272 24.3846803,25.2670463 C22.5978734,24.6075655 20.0025752,23.8812564 16.598708,23.088097 C13.1948408,22.2949377 10.7022825,21.2923636 9.12095841,20.0803449 C7.53963428,18.8683261 6.74898407,17.3934283 6.74898407,15.6556073 C6.74898407,13.9177862 7.37435711,12.2557413 8.62512197,10.6694226 C9.87588682,9.08310388 11.5063237,7.67504437 13.5164815,6.44520178 C15.5266393,5.2153592 17.7199119,4.1192116 20.0963651,3.1567261 C25.0100842,1.17828368 29.5663735,0.189077309 33.7653698,0.189077309 C35.373496,0.189077309 43.106673,0.861381714 40.8905845,4.36841811 C38.6744961,7.87545451 31.1581655,10.1391146 28.9544161,9.85641255 C26.7506667,9.57371048 38.1994328,4.05366848 34.651471,3.92890172 C32.4691851,3.85215998 27.5964621,5.35795071 25.1217345,6.23131718 C22.6470069,7.10468366 20.4984038,8.08943414 18.6758607,9.18559818 C16.8533176,10.2817622 15.3345545,11.3600863 14.1195258,12.4206027 C12.9044971,13.4811192 12.2969919,14.2297078 12.2969919,14.666391 C12.2969919,15.1030742 12.4310004,15.4640009 12.6990214,15.7491818 C13.4494803,16.551253 15.5310792,17.3889593 18.9438804,18.2623258 C22.4817581,19.1713399 24.8403079,19.9021049 26.0196005,20.4546429 C27.1988931,21.0071809 28.1771552,21.5329753 28.9544162,22.0320418 C29.7316772,22.5311084 30.3525833,23.0390792 30.8171531,23.5559696 C31.9071053,24.803636 32.4520733,26.0691072 32.4520733,27.3524212 C32.4520733,28.6357352 32.1081181,29.838824 31.4201974,30.9617238 C30.7322768,32.0846235 29.6959443,33.1718593 28.3111689,34.2234639 C26.9263935,35.2750684 25.2959567,36.2108041 23.4198094,37.0306992 C19.3101535,38.8665512 14.4143759,39.7844634 8.73232985,39.7844634 C4.58693776,39.7844634 1.94250317,38.6883158 0.798946731,36.4959877 C0.495189553,35.9434497 -0.0752844225,34.409733 0.531364122,32.2774378 C1.13801267,30.1451425 2.73666226,27.9817985 8.73232985,26.6244224 C14.7279974,25.2670463 21.1206519,26.0833468 23.1210564,26.6244224 C24.8120188,27.0817992 16.2263519,27.253557 12.6990216,28.2854849 Z" id="Path-Copy"></path>
                <path d="M92.038454,12.1216184 C92.038454,12.9158711 91.6682847,13.7135953 90.927935,14.5148151 C90.1875854,15.3160348 89.4158174,15.7166387 88.6126079,15.7166387 C87.8093983,15.7166387 87.4077996,15.2986173 87.4077996,14.4625619 C87.4077996,13.6265065 87.7605081,12.8287822 88.4659356,12.0693652 C89.1713631,11.3099482 89.9501154,10.9302454 90.8022159,10.9302454 C91.1793752,10.9302454 91.4797012,11.0347508 91.703203,11.2437647 C91.9267047,11.4527785 92.038454,11.7453935 92.038454,12.1216184 L92.038454,12.1216184 Z" id="Path-Copy-2"></path>
                <path d="M119.36663,30.074485 C117.783593,32.1204402 117.404775,32.5028292 116.410602,33.3352063 C115.41643,34.1675835 114.438814,34.8872933 113.209554,34.8872933 C112.455236,34.8872933 111.756803,34.6608651 111.114235,34.2080017 C110.471668,33.7551384 110.150389,32.9643812 110.150389,31.8357064 C110.150389,30.7070316 110.450715,29.5992748 111.051376,28.5124027 C107.587098,32.8459566 104.870196,35.012701 102.900586,35.012701 C102.11833,35.012701 101.486248,34.7340201 101.004323,34.1766498 C100.522397,33.6192795 100.281438,33.0445 100.281438,32.4522941 C100.281438,31.8600882 100.36525,31.2469901 100.532876,30.6129814 C100.700502,29.9789728 100.878603,29.4111603 101.067182,28.9095271 C101.255762,28.4078938 101.535135,27.7878287 101.90531,27.0493131 C102.275485,26.3107975 102.551365,25.7743366 102.732961,25.4399145 C102.914556,25.1054923 103.204405,24.6003831 103.602518,23.9245716 C104.00063,23.2487602 104.524455,22.3395636 105.174007,21.1969545 C105.823559,20.0543454 106.361352,19.207852 106.787402,18.6574489 C107.213453,18.1070458 107.62902,17.8283648 108.034117,17.8213977 C108.439214,17.8144305 108.795415,17.9781556 109.102729,18.3125778 C109.410044,18.6469999 109.5637,18.9187139 109.5637,19.1277277 C109.5637,19.3367416 109.09575,20.2772898 108.159836,21.9494006 C105.394002,26.9378645 104.011105,29.8431135 104.011105,30.6652346 C104.011105,30.8742485 104.087933,30.9787538 104.24159,30.9787538 C104.912095,30.9787538 106.581349,29.5296129 109.249402,26.6312875 C111.917454,23.7329621 113.46099,21.8762502 113.880056,21.0610962 C114.299122,20.2459422 114.707705,19.5596903 115.105818,19.00232 C115.50393,18.4449498 115.800764,18.1035656 115.996328,17.9781573 C116.596989,17.5879981 117.372249,17.3789874 118.322132,17.3511189 C118.475789,17.3511189 118.594523,17.3580859 118.678336,17.3720201 C118.762149,17.3859544 118.85993,17.5043938 118.971681,17.7273419 C119.083431,17.95029 119.139306,18.1244656 119.139306,18.2498739 C119.013586,18.6400331 118.458332,19.6781197 117.473528,21.3641647 C116.488723,23.0502098 115.940453,24.0046921 115.828703,24.2276402 C114.180377,27.6275988 113.356226,29.8431124 113.356226,30.8742474 C113.356226,31.4594862 113.579725,31.7521012 114.026728,31.7521012 C114.836922,31.6406272 115.577359,31.0516569 116.949745,30.074485 C118.322131,29.0973131 120.949667,28.0285298 119.36663,30.074485 Z" id="Path-Copy-3"></path>
            </g>
        </g>
    </g>
</svg>