<?xml version="1.0" encoding="UTF-8"?>
<svg width="349px" height="205px" viewBox="0 0 349 205" version="1.1" xmlns="http://www.w3.org/2000/svg" xmlns:xlink="http://www.w3.org/1999/xlink">
    <!-- Generator: Sketch 49.1 (51147) - http://www.bohemiancoding.com/sketch -->
    <title>logo</title>
    <desc>Created with Sketch.</desc>
    <defs></defs>
    <g id="Page-1" stroke="none" stroke-width="1" fill="none" fill-rule="evenodd">
        <g id="logo" fill="#000" fill-rule="nonzero">
            <path d="M111.451626,70.1279622 C111.335279,70.2466121 92.9982009,88.0580559 92.9982009,88.0580559 L74.897413,70.5025235 C65.2371018,60.9011877 65.2970739,45.5302097 75.1049161,36.0172797 C84.988323,26.4345556 101.011677,26.4345556 110.893884,36.0184429 C112.071738,37.160739 113.09846,38.3914409 113.994444,39.6814678 L128.57247,25.5423549 C127.563738,24.3302648 126.479442,23.1565613 125.317182,22.0293873 C107.469476,4.71813456 78.5305246,4.7192978 60.6816187,22.0293873 C54.0678922,28.4434612 49.9106241,36.3360059 48.1990194,44.6089282 L11.4816821,9 L-9,9 L-9,195 L11.40012,195 L11.40012,36.8990113 L60.2426227,84.2670751 C60.3901541,84.4148056 60.5292895,84.5683526 60.6804193,84.7149198 L109.796395,132.3261 C109.940328,132.478483 110.092657,132.623887 110.248584,132.764639 L110.893884,133.390459 C115.468558,137.814239 118.30644,143.915403 118.30644,150.67612 C118.30644,164.228963 106.976505,175.216875 93.0006,175.216875 C79.0258942,175.216875 67.6959591,164.228963 67.6959591,150.67612 C67.6959591,142.194979 72.1326974,134.717709 78.8783628,130.310214 L64.3087332,116.180407 C53.9359535,124.306762 47.2958391,136.734758 47.2958391,150.674957 C47.2958391,175.155223 67.7595296,195 93.0006,195 C118.242869,195 138.70656,175.155223 138.70656,150.674957 C138.70656,137.68512 132.943238,126.000431 123.762704,117.892689 L107.423897,102.04711 L125.307586,84.7032877 C125.440724,84.5974334 174.59988,36.8990113 174.59988,36.8990113 L174.59988,195 L195,195 L195,9 L174.518318,9 L137.799781,44.6089282 C137.798582,44.5996223 111.451626,70.1279622 111.451626,70.1279622 Z" id="Fill-1" transform="translate(93.000000, 102.000000) rotate(-90.000000) translate(-93.000000, -102.000000) "></path>
            <polygon id="Fill-2" transform="translate(287.500000, 194.500000) rotate(-90.000000) translate(-287.500000, -194.500000) " points="277 133 298 133 298 256 277 256"></polygon>
        </g>
    </g>
</svg>
