<?xml version="1.0" standalone="no"?>
<!DOCTYPE svg PUBLIC "-//W3C//DTD SVG 20010904//EN"
 "http://www.w3.org/TR/2001/REC-SVG-20010904/DTD/svg10.dtd">
<svg version="1.0" xmlns="http://www.w3.org/2000/svg"
 width="1396.000000pt" height="1396.000000pt" viewBox="0 0 1396.000000 1396.000000"
 preserveAspectRatio="xMidYMid meet">
<metadata>
Created by potrace 1.11, written by Peter Selinger 2001-2013
</metadata>
<g transform="translate(0.000000,1396.000000) scale(0.100000,-0.100000)"
fill="#000000" stroke="none">
<path d="M0 10670 l0 -410 129 -132 c71 -73 164 -170 207 -214 139 -144 525
-542 654 -674 178 -184 535 -551 625 -645 42 -44 188 -194 324 -334 135 -140
280 -289 321 -332 303 -313 669 -689 820 -844 49 -51 76 -85 71 -93 -4 -6
-104 -111 -222 -233 -510 -525 -567 -579 -661 -633 -48 -28 -148 -76 -158 -76
-5 0 -21 -5 -37 -12 -15 -6 -32 -12 -38 -14 -29 -7 -82 -17 -101 -19 -11 -1
-25 -4 -31 -8 -12 -7 -259 -2 -311 7 -18 3 -42 10 -52 16 -11 6 -20 9 -20 6 0
-7 -95 27 -155 55 -92 42 -189 113 -277 202 -49 48 -88 91 -88 96 0 4 -10 20
-23 34 -23 27 -121 207 -113 207 3 0 -2 17 -10 37 -9 20 -17 44 -19 52 -33
149 -41 192 -33 197 5 4 5 10 0 17 -10 13 -9 155 2 222 26 172 93 334 189 465
47 63 158 177 200 203 15 10 27 21 27 26 0 8 -82 94 -419 440 l-141 145 -27
-25 c-68 -59 -175 -173 -244 -259 -96 -121 -225 -350 -265 -475 -2 -5 -13 -37
-24 -70 -26 -72 -57 -189 -65 -242 -3 -21 -7 -50 -10 -63 -26 -135 -26 -461 1
-580 3 -14 7 -43 10 -65 3 -22 10 -58 16 -80 7 -22 13 -47 14 -57 0 -9 5 -25
9 -35 10 -22 10 -21 20 -58 12 -45 73 -190 112 -270 34 -67 138 -235 153 -245
4 -3 11 -12 16 -21 26 -48 185 -216 283 -299 85 -73 248 -178 356 -230 107
-52 276 -113 341 -124 82 -14 119 33 -366 -466 -136 -140 -290 -299 -341 -352
-160 -165 -541 -558 -596 -614 l-53 -54 0 -411 0 -410 58 1 c31 1 62 1 67 0
11 -1 292 0 303 1 4 1 12 1 17 0 6 -1 53 -2 105 -1 52 1 100 1 105 1 17 0 438
0 465 0 14 0 122 0 240 0 118 0 229 0 245 0 17 0 116 0 222 -1 105 0 195 0
200 1 4 1 13 1 18 0 10 -2 290 -2 303 0 4 1 12 1 17 0 6 -1 84 -1 175 -1 91 1
174 2 185 2 11 -1 117 -1 235 -1 118 0 224 0 235 0 11 0 49 0 85 0 36 1 74 1
85 1 49 -1 457 -2 520 -1 39 0 75 0 80 -1 12 -1 293 0 303 1 4 1 12 1 17 0 6
-1 53 -2 105 -1 52 1 100 1 105 1 17 0 438 0 465 0 14 0 122 0 240 0 118 0
229 0 245 0 17 0 116 0 222 -1 105 0 195 0 200 1 4 1 13 1 18 0 10 -2 290 -2
303 0 4 1 12 1 17 0 6 -1 84 -1 175 -1 91 1 174 2 185 2 11 -1 117 -1 235 -1
118 0 224 0 235 0 11 0 49 0 85 0 72 1 74 1 214 -1 54 0 101 1 103 4 4 3 4 21
2 76 0 14 0 200 0 245 1 61 0 227 0 233 -1 4 -1 12 1 17 3 19 0 227 -4 234 -3
4 -1422 6 -3155 6 -1763 0 -3151 4 -3151 9 0 4 28 37 63 71 34 35 152 156 262
270 110 114 254 263 320 330 66 68 206 212 310 320 105 108 244 252 310 320
137 141 534 550 675 695 52 54 203 209 335 346 132 136 303 312 380 391 77 80
206 213 288 296 81 83 147 152 147 153 0 0 53 55 118 122 64 66 223 230 352
363 129 134 259 267 288 296 61 60 158 137 196 154 14 7 26 16 26 21 0 4 7 8
15 8 9 0 27 7 40 16 13 9 30 17 37 18 7 1 23 8 36 14 12 7 22 10 22 6 0 -3 6
-2 13 3 11 9 67 25 142 41 37 8 277 8 325 0 82 -14 151 -37 260 -86 124 -56
304 -214 379 -332 22 -36 44 -69 48 -75 10 -12 58 -116 58 -124 0 -3 3 -11 7
-17 11 -17 48 -161 55 -217 8 -63 9 -236 0 -292 -8 -59 -34 -166 -48 -200 -7
-16 -13 -34 -15 -40 -6 -26 -50 -109 -94 -180 -51 -82 -164 -200 -257 -268
-55 -40 -196 -115 -226 -121 -7 -2 -37 -10 -67 -20 -80 -25 -131 -31 -265 -31
-128 0 -170 5 -250 29 -27 9 -50 15 -50 15 0 -2 -53 19 -104 42 -130 59 -259
162 -355 284 -22 28 -43 54 -48 59 -4 5 -74 -59 -155 -143 -81 -84 -197 -204
-258 -266 -60 -62 -121 -125 -134 -139 l-24 -26 54 -62 c68 -79 165 -172 249
-238 36 -28 73 -58 83 -66 9 -8 19 -14 22 -14 2 0 35 -20 72 -43 75 -48 168
-94 298 -147 62 -26 142 -49 225 -65 14 -3 36 -8 50 -11 86 -20 176 -28 325
-28 203 -1 326 17 530 78 6 2 17 6 25 9 8 3 47 18 85 32 138 51 333 166 465
274 51 41 215 204 250 247 99 123 201 292 268 444 24 54 80 212 86 243 11 50
15 70 22 89 3 11 7 30 9 41 1 12 5 36 8 52 9 48 16 104 23 190 7 94 7 89 5 95
-1 4 -11 189 -15 288 0 17 -4 32 -7 32 -3 0 -6 6 -6 13 -4 61 -47 234 -83 329
-12 32 -20 59 -19 60 1 2 -4 14 -11 28 -8 14 -15 27 -15 30 -6 35 -191 350
-206 350 -4 0 -9 6 -11 14 -7 29 -191 228 -284 306 -86 72 -262 190 -284 190
-6 0 -10 5 -10 10 0 6 -4 10 -9 10 -5 0 -47 17 -93 39 -230 107 -453 155 -718
155 -248 1 -446 -37 -655 -125 -16 -7 -32 -13 -35 -13 -19 -4 -159 -78 -225
-119 -181 -114 -211 -140 -557 -498 -108 -112 -259 -269 -336 -348 l-140 -144
-68 70 c-38 39 -157 161 -264 272 -107 111 -265 274 -350 362 -86 87 -156 159
-155 159 0 0 -54 56 -120 124 -159 164 -569 586 -674 695 -46 47 -193 199
-326 336 -134 138 -284 293 -335 345 -50 52 -140 145 -200 207 -60 62 -106
114 -102 116 4 1 1425 2 3159 2 2831 -1 3151 1 3151 15 0 8 1 62 2 120 1 58 1
110 0 115 -2 6 -2 15 -1 20 1 8 2 279 1 498 l0 47 -3720 0 -3720 0 0 -410z"/>
<path d="M9079 3722 c-27 -2 -38 -9 -42 -23 -3 -10 -1 -19 3 -19 5 0 5 -13 0
-29 -4 -15 -4 -34 0 -40 4 -7 4 -30 0 -51 -4 -21 -4 -44 1 -51 4 -7 4 -20 -1
-29 -5 -9 -5 -22 -1 -29 5 -7 5 -30 1 -51 -4 -21 -4 -44 1 -51 4 -7 4 -20 -1
-29 -5 -9 -5 -22 -1 -29 5 -7 5 -30 1 -51 -4 -21 -4 -44 1 -51 4 -7 4 -20 -1
-29 -5 -9 -5 -22 -1 -29 5 -7 5 -30 1 -51 -4 -21 -4 -44 1 -51 4 -7 4 -20 -1
-30 -5 -9 -6 -19 -3 -23 4 -3 6 -27 4 -51 l-2 -45 2461 0 2460 0 0 421 0 421
-35 -4 c-19 -2 -35 -2 -35 2 0 6 -99 4 -106 -2 -2 -3 -21 -2 -42 2 -20 3 -48
3 -62 0 -14 -4 -34 -4 -44 0 -11 3 -39 3 -63 0 -23 -4 -43 -4 -43 -1 0 5 -96
5 -110 0 -3 -1 -9 -1 -14 0 -4 1 -27 2 -50 1 -22 0 -50 0 -61 0 -167 0 -228
-1 -236 -6 -5 -3 -9 -2 -9 3 0 7 -93 9 -110 2 -3 -1 -9 -1 -14 0 -4 1 -27 2
-50 1 -22 0 -50 0 -61 0 -167 0 -228 -1 -236 -6 -5 -3 -9 -2 -9 3 0 7 -93 9
-110 2 -3 -1 -9 -1 -14 0 -4 1 -27 2 -50 1 -22 0 -50 0 -61 0 -167 0 -228 -1
-236 -6 -5 -3 -9 -2 -9 3 0 7 -93 9 -110 2 -3 -1 -9 -1 -14 0 -4 1 -27 2 -50
1 -22 0 -50 0 -61 0 -167 0 -228 -1 -236 -6 -5 -3 -9 -2 -9 3 0 7 -93 9 -110
2 -3 -1 -9 -1 -14 0 -4 1 -27 2 -50 1 -22 0 -50 0 -61 0 -167 0 -228 -1 -236
-6 -5 -3 -9 -2 -9 3 0 7 -93 9 -110 2 -3 -1 -9 -1 -14 0 -4 1 -27 2 -50 1 -22
0 -50 0 -61 0 -167 0 -228 -1 -236 -6 -5 -3 -9 -2 -9 3 0 7 -93 9 -110 2 -3
-1 -9 -1 -14 0 -4 1 -27 2 -50 1 -58 -1 -64 -1 -136 0 -36 0 -87 0 -115 1 -27
0 -56 1 -62 0 -21 -2 -80 -2 -145 -2 -7 0 -60 0 -118 1 -58 0 -127 0 -155 1
-27 0 -56 1 -62 0 -22 -2 -78 -2 -150 -2 -32 1 -228 0 -238 0 -5 0 -41 0 -78
1 -38 1 -71 -1 -74 -4 -4 -3 -11 -2 -17 2 -6 4 -27 6 -47 4z"/>
</g>
</svg>
