<?xml version="1.0" encoding="UTF-8"?>
<svg width="50px" height="31px" viewBox="0 0 50 31" version="1.1" xmlns="http://www.w3.org/2000/svg" xmlns:xlink="http://www.w3.org/1999/xlink">
    <!-- Generator: Sketch 55.2 (78181) - https://sketchapp.com -->
    <title>Group</title>
    <desc>Created with Sketch.</desc>
    <g id="Page-2" stroke="none" stroke-width="1" fill="none" fill-rule="evenodd">
        <g id="Desktop-HD-Copy-13" transform="translate(-100.000000, -100.000000)" fill="#FFFFFF" fill-rule="nonzero">
            <g id="Group" transform="translate(100.000000, 100.000000)">
                <path d="M16.4375609,10.7037915 C16.4207917,10.7213574 13.7778444,13.3583126 13.7778444,13.3583126 L11.1689539,10.7592447 C9.77660049,9.33778263 9.78524436,7.06213446 11.1988616,5.65376072 C12.6233701,4.23505407 14.9328372,4.23505407 16.3571729,5.65393293 C16.5269384,5.823048 16.6749212,6.0052514 16.8040606,6.19623777 L18.9052107,4.10296521 C18.7598209,3.92351725 18.6035398,3.74975237 18.4360218,3.5828761 C15.8636084,1.01997342 11.6925991,1.02014564 9.12001271,3.5828761 C8.16676756,4.53246926 7.56757502,5.7009476 7.32087918,6.92574023 L2.02876086,1.6538966 L-0.923291043,1.6538966 L-0.923291043,29.1908926 L2.0170052,29.1908926 L2.0170052,5.78429963 L9.05673963,12.7970641 C9.07800353,12.8189353 9.0980573,12.8416677 9.11983983,12.8633668 L16.1989903,19.9121241 C16.2197355,19.9346843 16.2416909,19.9562111 16.2641649,19.9770491 L16.3571729,20.0697008 C17.0165267,20.7246342 17.4255542,21.6279015 17.4255542,22.6288147 C17.4255542,24.6352909 15.7925558,26.2620333 13.7781902,26.2620333 C11.7639974,26.2620333 10.1309989,24.6352909 10.1309989,22.6288147 C10.1309989,21.3731956 10.7704718,20.266198 11.7427335,19.6136756 L9.64279351,17.5217808 C8.14775106,18.7248743 7.19070261,20.5648187 7.19070261,22.6286425 C7.19070261,26.2529059 10.1401613,29.1908926 13.7781902,29.1908926 C17.4163918,29.1908926 20.3658506,26.2529059 20.3658506,22.6286425 C20.3658506,20.7055183 19.5351754,18.9756192 18.2119729,17.7752812 L15.857039,15.4293692 L18.4346388,12.8616446 C18.4538281,12.8459731 25.5392022,5.78429963 25.5392022,5.78429963 L25.5392022,29.1908926 L28.4794984,29.1908926 L28.4794984,1.6538966 L25.5274466,1.6538966 L20.2351553,6.92574023 C20.2349824,6.92436251 16.4375609,10.7037915 16.4375609,10.7037915 Z" id="Fill-1" transform="translate(13.778104, 15.422395) rotate(-90.000000) translate(-13.778104, -15.422395) "></path>
                <polygon id="Fill-2" transform="translate(41.220299, 29.340667) rotate(-90.000000) translate(-41.220299, -29.340667) " points="40.1701998 20.8677453 42.270399 20.8677453 42.270399 37.8135891 40.1701998 37.8135891"></polygon>
            </g>
        </g>
    </g>
</svg>