<?xml version="1.0" encoding="UTF-8" standalone="no"?>
<svg width="30px" height="50px" viewBox="0 0 30 50" version="1.1" xmlns="http://www.w3.org/2000/svg" xmlns:xlink="http://www.w3.org/1999/xlink">
    <!-- Generator: Sketch 3.8.3 (29802) - http://www.bohemiancoding.com/sketch -->
    <title>Group 4</title>
    <desc>Created with Sketch.</desc>
    <defs>
        <rect id="path-1" x="0" y="0" width="30" height="50" rx="15"></rect>
        <mask id="mask-2" maskContentUnits="userSpaceOnUse" maskUnits="objectBoundingBox" x="0" y="0" width="30" height="50" fill="white">
            <use xlink:href="#path-1"></use>
        </mask>
    </defs>
    <g id="Page-1-Copy" stroke="none" stroke-width="1" fill="none" fill-rule="evenodd">
        <g id="Desktop-HD-Copy-43" transform="translate(-1250.000000, -202.000000)">
            <g id="Group-4" transform="translate(1250.000000, 202.000000)">
                <use id="Rectangle-375" stroke="#222222" mask="url(#mask-2)" stroke-width="4" xlink:href="#path-1"></use>
                <path d="M15,9.99961498 L15,9.99961498 L15,16.000385 C15,16.0039946 14.9959938,16 15,16 C15.0039335,16 15,16.0039433 15,16.000385 L15,9.99961498 C15,9.99600535 15.0040062,10 15,10 C14.9960665,10 15,9.99605674 15,9.99961498 L15,9.99961498 Z M13,9.99961498 C13,8.89525812 13.8877296,8 15,8 C16.1045695,8 17,8.88743329 17,9.99961498 L17,16.000385 C17,17.1047419 16.1122704,18 15,18 C13.8954305,18 13,17.1125667 13,16.000385 L13,9.99961498 L13,9.99961498 Z" id="Rectangle-375" fill="#222222"></path>
            </g>
        </g>
    </g>
</svg>