<?xml version="1.0" encoding="UTF-8" standalone="no"?>
<svg width="412px" height="346px" viewBox="0 0 412 346" version="1.1" xmlns="http://www.w3.org/2000/svg" xmlns:xlink="http://www.w3.org/1999/xlink">
    <!-- Generator: Sketch 3.8.3 (29802) - http://www.bohemiancoding.com/sketch -->
    <title>Group 4 Copy 2</title>
    <desc>Created with Sketch.</desc>
    <defs>
        <path d="M16.2457268,43.01062 C18.3599902,34.9234514 20.0452007,0 20.0452007,0 L106.537792,0 C106.537792,0 108.330828,34.7855746 110.86092,43.01062 C113.391012,51.2356654 120.376607,55.5600363 124.605134,58.7348956 L1.97785927,58.7348956 C6.20638597,55.5600363 14.1314634,51.0977886 16.2457268,43.01062 Z" id="path-1"></path>
        <rect id="path-3" x="0.152023783" y="0.224014539" width="367.09068" height="225.415005"></rect>
    </defs>
    <g id="Page-1-Copy" stroke="none" stroke-width="1" fill="none" fill-rule="evenodd">
        <g id="Group-4-Copy-2">
            <path d="M35.2899012,333.393328 C37.5266293,330.658917 42.1962418,328.442239 45.7375538,328.442239 L366.262607,328.442239 C369.795958,328.442239 374.480688,330.667667 376.710259,333.393328 L382.644895,340.648448 C384.881624,343.382859 383.838523,345.599537 380.288147,345.599537 L31.7120136,345.599537 C28.1736892,345.599537 27.1256943,343.374109 29.3552651,340.648448 L35.2899012,333.393328 Z" id="Rectangle-991" fill-opacity="0.04" fill="#000000"></path>
            <g id="Group-3-Copy">
                <g id="Group-2">
                    <g id="//-Thunderbolt-Display">
                        <g id="::-stand" transform="translate(142.405867, 269.863034)">
                            <rect id="Rectangle-80" fill="#B2B2B2" x="0" y="63.4971844" width="126.582993" height="3.17485922"></rect>
                            <path d="M0.962404586,60.9626622 C1.42959545,59.7323007 2.87137955,58.7348956 4.18214319,58.7348956 L122.40085,58.7348956 C123.711872,58.7348956 125.153749,59.7332274 125.620588,60.9626622 L126.582993,63.4971844 L-1.00382395e-16,63.4971844 L0.962404586,60.9626622 Z" id="Rectangle-77" fill="#C3C3C3"></path>
                            <mask id="mask-2" fill="white">
                                <use xlink:href="#path-1"></use>
                            </mask>
                            <use id="Mask" fill="#D8D8D8" xlink:href="#path-1"></use>
                            <rect id="Rectangle-123" fill="#B3B3B3" mask="url(#mask-2)" x="9.49372448" y="0" width="107.595544" height="3.17485922"></rect>
                        </g>
                        <g id="::-base">
                            <rect id="dark-bezel" fill="#3C3C3C" x="0" y="0" width="411.394727" height="269.863034" rx="4.8"></rect>
                            <path d="M205.699277,256.514192 C206.034448,256.642762 206.551974,256.81381 206.551974,256.81381 L207.695675,256.425703 C207.695675,256.425703 208.030115,256.331574 208.333537,256.331574 C208.636959,256.331574 209.325132,256.501713 209.631673,256.725533 C209.938214,256.949353 210.195042,257.298962 210.195042,257.298962 C210.195042,257.298962 209.516824,257.705709 209.313483,258.301699 C209.110143,258.897689 209.148631,259.102425 209.148631,259.102425 C209.148631,259.102425 209.133825,260.009352 209.619813,260.516699 C210.1058,261.024046 210.444226,261.139037 210.444226,261.139037 C210.444226,261.139037 210.264914,261.797246 209.92412,262.310639 C209.583327,262.824032 209.351086,263.121254 209.351086,263.121254 C209.351086,263.121254 208.957459,263.553267 208.659197,263.643591 C208.360935,263.733915 208.467486,263.726555 208.32056,263.726555 C208.173633,263.726555 207.86948,263.661729 207.86948,263.661729 L207.282371,263.445249 C207.282371,263.445249 206.937341,263.337734 206.697842,263.337734 C206.458342,263.337734 206.007589,263.466131 206.007589,263.466131 C206.007589,263.466131 205.526569,263.650023 205.376331,263.688289 C205.226093,263.726555 205.110339,263.73461 205.054849,263.73461 C204.999359,263.73461 204.801814,263.732408 204.609776,263.619426 C204.417737,263.506444 204.189887,263.360605 203.860202,262.924188 C203.530518,262.487771 202.802105,261.453683 202.58469,259.982831 C202.367275,258.511978 202.903245,257.668737 202.903245,257.668737 C202.903245,257.668737 203.527206,256.381758 204.9632,256.356666 C205.254988,256.351567 205.364105,256.385621 205.699277,256.514192 Z M206.483141,256.235784 C206.483141,256.235784 206.376513,255.322945 207.04341,254.692205 C207.710308,254.061464 208.432463,253.988738 208.432463,253.988738 C208.432463,253.988738 208.580508,254.568019 208.019718,255.432315 C207.458928,256.296611 206.483141,256.235784 206.483141,256.235784 Z" id="logo" fill="#FFFFFF"></path>
                            <rect id="camera-on-light" fill="#61FFB2" x="213.608801" y="9.52457766" width="3.16457483" height="3.17485922" rx="1.58228741"></rect>
                            <rect id="camera" fill="#5C5C5C" x="202.532789" y="7.93714805" width="6.32914965" height="6.34971844" rx="3.16457483"></rect>
                            <rect id="microphone" fill="#545454" x="194.621352" y="9.52457766" width="3.16457483" height="3.17485922" rx="1.58228741"></rect>
                        </g>
                        <g id="::-screen" transform="translate(22.152024, 22.224015)">
                            <g id="::-contents" transform="translate(113.924694, 206.365849)"></g>
                            <polygon id="glare" fill="#CD6799" points="0 0 224.684813 0 0 225.415005"></polygon>
                        </g>
                        <g id="Bitmap" transform="translate(22.000000, 22.000000)">
                            <mask id="mask-4" fill="white">
                                <use xlink:href="#path-3"></use>
                            </mask>
                            <use id="Mask" fill="#E4E4E4" xlink:href="#path-3"></use>
                        </g>
                    </g>
                </g>
            </g>
        </g>
    </g>
</svg>