<?xml version="1.0" encoding="UTF-8" standalone="no"?>
<svg width="300px" height="100px" viewBox="0 0 300 100" version="1.1" xmlns="http://www.w3.org/2000/svg" xmlns:xlink="http://www.w3.org/1999/xlink">
    <!-- Generator: Sketch 3.7.1 (28215) - http://www.bohemiancoding.com/sketch -->
    <title>Group Copy</title>
    <desc>Created with Sketch.</desc>
    <defs></defs>
    <g id="Page-1" stroke="none" stroke-width="1" fill="none" fill-rule="evenodd">
        <g id="Artboard-8-Copy-4" transform="translate(-50.000000, -150.000000)" fill="#CD6799">
            <g id="Group-Copy" transform="translate(50.000000, 150.000000)">
                <path d="M215.481287,75.3440692 C214.224089,76.6665003 212.73119,77.8758107 211.002543,78.9720365 C209.273897,80.0682623 207.606389,80.616367 205.99997,80.616367 C204.393551,80.616367 203.590353,80.0247619 203.590353,78.8415341 C203.590353,77.9019119 203.93957,76.736102 204.638013,75.3440692 C204.987234,74.6828536 205.292798,74.1173488 205.554715,73.6475377 C205.816631,73.1777267 206.183308,72.5861216 206.654757,71.8727048 C207.126206,71.159288 207.414309,70.6981841 207.519076,70.4893792 C215.830548,56.2210432 219.986222,48.6867789 219.986222,47.88636 C219.986222,47.0859412 219.549702,46.1985336 218.676648,45.2241107 C217.803594,44.2496877 216.817058,43.7624835 215.71701,43.7624835 C214.616962,43.7624835 213.028028,44.51939 210.95016,46.0332257 C208.872292,47.5470613 207.10875,49.0782744 205.65948,50.6269108 C204.210211,52.1755473 203.485587,53.1325555 203.485587,53.4979641 C203.485587,53.8633727 203.843534,54.4288775 204.559438,55.1944955 C205.275342,55.9601136 205.633289,56.473418 205.633289,56.7344241 C205.633289,56.9954303 204.672944,58.6745446 202.752226,61.7718175 C200.831507,64.8690904 198.910818,68.2447193 196.990099,71.8988053 C196.63128,72.5814442 196.305977,73.2337179 196.014192,73.8556271 C195.370863,74.5436276 194.718352,75.222476 194.056653,75.8921794 C192.939144,77.023206 191.664505,78.0846151 190.232697,79.0764384 C188.800888,80.0682618 187.56117,80.564166 186.513506,80.564166 C185.465841,80.564166 184.942017,79.6071578 184.942017,77.6931128 C184.942017,77.066698 184.994399,76.5794939 185.099166,76.2314857 C185.622998,73.4126193 186.784142,70.0108902 188.582633,66.0261964 C190.381124,62.0415026 192.02244,58.7702746 193.506632,56.2124144 C194.990823,53.6545542 195.959899,52.1494413 196.413887,51.6970307 C196.867875,51.24462 197.094865,50.5312139 197.094865,49.556791 C197.094865,47.7471484 195.767843,46.8423407 193.11376,46.8423407 C191.961329,46.8423407 191.097018,47.0076421 190.520803,47.3382499 C189.944587,47.6688576 189.237424,48.4605644 188.399293,49.7133939 C188.084993,48.7737718 187.334178,47.9907651 186.146825,47.3643503 C184.959472,46.7379356 183.42292,46.4247329 181.537124,46.4247329 C176.648022,46.4247329 171.305013,48.6867522 165.507936,53.2108588 C162.749086,55.3685096 160.217268,57.76103 157.912405,60.3884919 C155.607543,63.0159537 153.747967,65.9217786 152.333619,69.1060535 C151.504107,70.9736249 150.917853,72.8351946 150.574851,74.6907816 C150.355564,74.8850178 150.129885,75.08538 149.897811,75.2918682 C148.431081,76.5794986 146.824686,77.7714087 145.078578,78.8676346 C143.332471,79.9638604 141.743537,80.511965 140.311728,80.511965 C138.87992,80.511965 138.164027,79.8333592 138.164027,78.4761273 C138.164027,77.8149117 138.23387,76.9623044 138.373559,75.9182799 C138.687858,73.6214258 141.385554,67.9054769 146.466727,58.7702619 C151.5479,49.6350468 155.502775,42.9098893 158.331469,38.5945877 C159.169601,38.5597869 163.639569,38.1421833 171.741509,37.3417645 C177.032189,37.3417645 177.489864,29.7689053 172.762834,29.7689053 C168.035803,29.7689053 166.92229,29.877025 164.198362,30.0858299 C164.268206,29.9466266 164.800761,29.1027194 165.796042,27.554083 C166.791323,26.0054465 167.655634,24.6221347 168.388999,23.404106 C169.122364,22.1860773 169.164431,21.8380769 168.849033,20.4062294 C168.533635,18.9743818 166.492669,18.7378682 164.894989,19.0271475 C163.297308,19.3164269 161.814942,20.5852475 160.714894,21.838077 C159.614846,23.0909065 157.598122,25.9097306 154.664662,30.2946338 C154.664662,30.2946338 143.730239,31.492047 140.311728,32.9307827 C136.893218,34.3695183 135.519955,35.9459047 135.217362,37.0783369 C134.914769,38.2107691 135.440108,39.0034933 136.383006,39.4037027 C137.325904,39.8039121 140.311728,39.970997 146.859599,39.3254013 L148.850152,39.0643964 C145.07856,44.9805357 141.307024,51.3141898 137.535431,58.0655488 C135.230569,62.2068463 133.31861,66.1131797 131.799496,69.7846661 C131.746112,69.9136889 131.693654,70.0420347 131.642125,70.1697036 C131.457405,70.2156059 131.291601,70.2960637 131.144709,70.4110777 C130.900254,70.6024822 130.262934,71.2549878 129.232731,72.368614 C128.202527,73.4822403 127.163609,74.5784496 126.115944,75.657275 C123.252328,78.6153447 120.807814,80.2335585 118.782329,80.511965 C117.66482,80.511965 117.106074,79.7811588 117.106074,78.3195244 C117.106074,75.7442638 119.16645,70.2110165 123.287264,61.7196166 C123.566641,61.1628034 124.937315,58.7789831 127.399327,54.5680839 C129.861339,50.3571848 131.249473,47.7645626 131.563773,46.7901397 C131.563773,46.4769323 131.424086,46.0419286 131.144709,45.4851155 C130.865332,44.9283024 130.62088,44.6324999 130.411347,44.597699 C130.201815,44.5628982 129.904981,44.5454981 129.520837,44.5454981 C127.146131,44.6150997 125.20798,45.1371042 123.706328,46.1115271 C123.217417,46.4247345 122.475333,47.2773418 121.480052,48.6693745 C120.48477,50.0614073 119.463313,51.775322 118.415648,53.8111699 C117.367983,55.8470178 113.509143,60.4841574 106.839012,67.7227279 C100.168881,74.9612983 95.9957461,78.5805292 94.3194828,78.5805292 C93.9353391,78.5805292 93.7432702,78.319527 93.7432702,77.7975147 C93.7432702,75.7442664 97.2005115,68.4884044 104.115098,56.029711 C106.454882,51.8536127 107.624757,49.5045926 107.624757,48.9825804 C107.624757,48.4605681 107.240619,47.7819623 106.472331,46.9467426 C105.704044,46.1115229 104.813542,45.7026194 103.8008,45.7200198 C102.788058,45.7374203 101.749139,46.4334262 100.684013,47.8080586 C99.6188877,49.1826909 98.274405,51.296809 96.6505249,54.1504762 C95.0266447,57.0041434 93.7170837,59.2748628 92.7218023,60.9627025 C91.7265209,62.6505423 91.0018971,63.912053 90.5479091,64.7472727 C90.0939211,65.5824924 89.404219,66.9223038 88.4787819,68.7667472 C87.5533449,70.6111907 86.8549123,72.1598039 86.3834632,73.4126334 C85.9120141,74.6654629 85.4667634,76.083575 85.0476975,77.6670123 C84.6286317,79.2504496 84.4191019,80.7816627 84.4191019,82.2606975 C84.4191019,83.7397323 85.0215,85.1752446 86.2263143,86.5672773 C87.4311286,87.9593101 89.0113323,88.6553161 90.9669729,88.6553161 C95.8909965,88.6553161 102.683253,83.2438698 111.343947,72.420815 C109.842295,75.1352789 109.09148,77.9019025 109.09148,80.7207689 C109.09148,83.5396353 109.894677,85.5145522 111.501096,86.6455788 C113.107515,87.7766054 114.853597,88.3421103 116.739393,88.3421103 C119.812542,88.3421103 123.060254,86.9413983 126.482625,84.1399323 C127.691536,83.1503487 128.750109,82.2139631 129.658349,81.3307725 C129.924931,82.9098391 130.516418,84.2290258 131.432815,85.2883536 C132.742396,86.8021893 134.794042,87.820098 137.587814,88.3421103 C138.041802,88.4465127 138.530705,88.4987132 139.054537,88.4987132 C141.464166,88.4987132 143.873758,87.7331066 146.283387,86.2018706 C147.656711,85.3291701 149.211517,84.2134429 150.947821,82.8546762 C151.427943,84.0689857 152.143058,85.1151129 153.093172,85.9930667 C154.594825,87.4199003 156.532975,88.1333064 158.907682,88.1333064 C161.282388,88.1333064 164.346761,86.8282952 168.100893,84.2182338 C171.855024,81.6081723 175.181309,78.4239451 178.079848,74.6654566 C177.381405,76.2314935 177.032189,78.049809 177.032189,80.1204578 C177.032189,82.1911065 177.6957,84.0790227 179.022741,85.7842628 C180.349783,87.489503 182.41889,88.3421103 185.230123,88.3421103 C188.041356,88.3421103 191.166842,86.9500984 194.606674,84.1660328 C194.80806,84.0030394 195.005285,83.8414179 195.198351,83.6811682 C195.674455,84.4224553 196.306625,85.1582863 197.094865,85.8886648 C199.085428,87.7331082 201.460099,88.6553161 204.218949,88.6553161 C206.9013,88.6553161 210.045777,87.6437295 213.65247,85.6205268 C213.879917,85.7121443 214.131572,85.8102238 214.407436,85.9147652 C215.647173,86.3845763 216.642439,86.6194783 217.393265,86.6194783 C218.144092,86.6194783 219.060784,85.8712719 220.143371,84.3748367 C223.880041,79.3635187 227.346013,75.1091823 230.54139,71.6117 C233.736767,68.1142176 237.613068,64.1556838 242.170409,59.7359798 C246.72775,55.3162757 249.582593,53.0542564 250.735024,52.9498539 C248.255551,56.0819271 246.96345,58.7963503 246.96345,61.1976069 C246.96345,62.2764323 247.269015,63.2160403 247.880152,64.0164591 C248.49129,64.816878 249.34687,65.2170814 250.446918,65.2170814 C251.546966,65.2170814 252.533502,64.6602767 253.406555,63.5466504 C255.047897,61.3541988 256.83763,58.6658758 258.77581,55.4816009 C260.713989,52.2973259 261.683064,50.0266065 261.683064,48.6693745 C261.683064,47.3121426 261.220353,46.2072331 260.294916,45.3546131 C259.369479,44.501993 258.190874,44.0756894 256.759065,44.0756894 C250.961988,44.0756894 243.942741,48.7389292 235.701112,58.0655488 L237.901197,54.7768878 C240.939424,50.2527813 242.458515,47.172955 242.458515,45.5373165 C242.458515,44.4932919 242.039456,43.9712874 241.201324,43.9712874 C237.464654,43.9712874 234.81061,44.9630959 233.239113,46.9467426 C232.400981,47.9907672 231.318411,49.6611815 229.991369,51.9580355 C229.36277,53.0716617 227.442081,56.3080894 224.229243,61.6674156 C221.088088,66.9071661 218.756462,70.8495159 217.234297,73.4945773 C216.703338,74.0447492 216.119001,74.6612463 215.481287,75.3440692 Z M186.146825,52.6366481 C180.175137,52.6366481 173.994009,55.9426764 167.603255,62.554832 C165.333315,64.9212878 163.246747,67.757512 161.34349,71.0635898 C159.440233,74.3696677 158.488618,76.631687 158.488618,77.8497157 C158.488618,79.0677444 158.837834,79.6767496 159.536277,79.6767496 C160.514098,79.6767496 163.237985,77.7540331 167.70802,73.9085426 C172.178056,70.063052 175.146395,67.2355279 176.613125,65.4258853 C178.219544,63.4074378 181.397412,59.1444013 186.146825,52.6366481 L186.146825,52.6366481 Z" id="Combined-Shape-Copy"></path>
                <path d="M31.7475539,70.643025 C22.9292281,73.220266 15.4338451,74.8501969 13.8408059,80.6129311 C12.2477667,86.3756652 21.9313102,86.3411707 26.2866521,86.3411707 C30.641994,86.3411707 35.4327982,85.6957133 40.6592085,84.4047791 C45.8856188,83.1138449 50.4307408,81.5335872 54.2947108,79.6639584 C58.1586807,77.7943296 61.3525502,75.8357002 63.876415,73.7880116 C66.4002798,71.7403229 67.6621933,69.9597508 67.6621933,68.4462418 C67.6621933,66.532098 65.4287181,64.7515259 60.9617008,63.1044719 C56.4946835,61.457418 50.0064381,59.6434601 41.4967701,57.6625439 C32.9871021,55.6816277 26.7557064,53.1776981 22.802396,50.1506801 C18.8490857,47.1236621 16.8724602,43.4401035 16.8724602,39.0998938 C16.8724602,34.7596841 18.4358928,30.6087253 21.5628049,26.6468929 C24.689717,22.6850605 28.7658092,19.1684305 33.7912037,16.0968975 C38.8165982,13.0253645 44.2997797,10.2877348 50.2409128,7.88392639 C62.5252105,2.94276459 73.9159338,0.472220757 84.4134245,0.472220757 C88.4337401,0.472220757 107.766682,2.15130164 102.226461,10.9101283 C96.6862403,19.668955 77.8954137,25.3224483 72.3860402,24.6163996 C66.8766666,23.9103509 95.498582,10.1240408 86.6286775,9.81243572 C81.1729629,9.62077316 68.9911552,13.3814869 62.8043362,15.5627205 C56.6175172,17.7439541 51.2460095,20.2033694 46.6896518,22.9410401 C42.1332941,25.6787108 38.3363863,28.3718262 35.2988145,31.0204669 C32.2612427,33.6691077 30.7424796,35.5387085 30.7424796,36.6293252 C30.7424796,37.719942 31.0775009,38.6213567 31.7475535,39.3335962 C33.6237008,41.3367699 38.8276979,43.4289422 47.359701,45.6101758 C56.2043953,47.8804393 62.1007698,49.7055257 65.0490012,51.0854898 C67.9972327,52.4654539 70.442888,53.7786259 72.3860405,55.0250451 C74.329193,56.2714643 75.8814583,57.5401219 77.0428828,58.8310561 C79.7677634,61.947104 81.1301832,65.1076196 81.1301832,68.3126975 C81.1301832,71.5177754 80.2702953,74.5224909 78.5504936,77.3269341 C76.8306919,80.1313773 74.2398607,82.8467498 70.7779223,85.4731331 C67.3159839,88.0995164 63.2398917,90.4365173 58.5495235,92.484206 C48.2753836,97.069248 36.0359397,99.3617346 21.8308246,99.3617346 C11.4673444,99.3617346 4.85625792,96.6241049 1.99736683,91.1487635 C1.23797388,89.7687994 -0.188211056,85.9383404 1.32841031,80.6129311 C2.84503167,75.2875217 6.84165564,69.8845681 21.8308246,66.49452 C36.8199936,63.1044719 52.8016297,65.1431831 57.8026411,66.49452 C62.030047,67.6368189 40.5658797,68.0657841 31.7475539,70.643025 Z" id="Path-Copy"></path>
                <path d="M230.096135,30.2737534 C230.096135,32.2574001 229.170712,34.2497171 227.319838,36.2507642 C225.468963,38.2518114 223.539543,39.2523199 221.53152,39.2523199 C219.523496,39.2523199 218.519499,38.208311 218.519499,36.1202618 C218.519499,34.0322127 219.40127,32.0398956 221.164839,30.143251 C222.928408,28.2466063 224.875288,27.2982982 227.00554,27.2982982 C227.948438,27.2982982 228.699253,27.5593005 229.258007,28.0813128 C229.816762,28.603325 230.096135,29.3341313 230.096135,30.2737534 L230.096135,30.2737534 Z" id="Path-Copy-2"></path>
                <path d="M298.416575,75.1110545 C294.458983,80.2208296 293.511937,81.1758463 291.026506,83.2547091 C288.541075,85.3335719 286.097035,87.1310478 283.023885,87.1310478 C281.138089,87.1310478 279.392008,86.565543 277.785589,85.4345163 C276.17917,84.3034897 275.375972,82.3285728 275.375972,79.5097065 C275.375972,76.6908401 276.126787,73.9242165 277.62844,71.2097525 C268.967746,82.0328074 262.175489,87.4442536 257.251465,87.4442536 C255.295825,87.4442536 253.715621,86.7482477 252.510807,85.3562149 C251.305992,83.9641821 250.703594,82.5286698 250.703594,81.049635 C250.703594,79.5706002 250.913124,78.0393871 251.33219,76.4559498 C251.751256,74.8725125 252.196507,73.4544004 252.667956,72.2015709 C253.139405,70.9487414 253.837837,69.4001282 254.763274,67.5556848 C255.688711,65.7112414 256.378414,64.3714299 256.832402,63.5362102 C257.28639,62.7009906 258.011013,61.4394798 259.006295,59.7516401 C260.001576,58.0638003 261.311137,55.7930809 262.935017,52.9394137 C264.558897,50.0857465 265.90338,47.9716285 266.968506,46.5969961 C268.033631,45.2223637 269.07255,44.5263578 270.085292,44.5089574 C271.098035,44.491557 271.988536,44.9004605 272.756824,45.7356801 C273.525111,46.5708998 273.909249,47.2495056 273.909249,47.7715179 C273.909249,48.2935302 272.739374,50.6425503 270.39959,54.8186486 C263.485004,67.2773419 260.027763,74.5332039 260.027763,76.5864522 C260.027763,77.1084645 260.219832,77.3694668 260.603975,77.3694668 C262.280239,77.3694668 266.453373,73.7502358 273.123504,66.5116654 C279.793636,59.273095 283.652476,54.6359554 284.70014,52.6001074 C285.747805,50.5642595 286.769263,48.8503449 287.764544,47.4583121 C288.759825,46.0662793 289.50191,45.213672 289.99082,44.9004647 C291.492473,43.9260417 293.430623,43.4040372 295.805329,43.3344356 C296.189473,43.3344356 296.486307,43.3518358 296.69584,43.3866366 C296.905373,43.4214374 297.149824,43.7172399 297.429201,44.274053 C297.708579,44.8308661 297.848265,45.2658699 297.848265,45.5790772 C297.533966,46.5535002 296.145831,49.1461223 293.683819,53.3570215 C291.221807,57.5679206 289.851134,59.951741 289.571756,60.5085541 C285.450942,68.999954 283.390566,74.5332013 283.390566,77.1084619 C283.390566,78.5700963 283.949312,79.3009026 285.066821,79.3009026 C287.092306,79.022496 288.943397,77.5515423 292.374363,75.1110545 C295.805328,72.6705667 302.374167,70.0012793 298.416575,75.1110545 Z" id="Path-Copy-3"></path>
            </g>
        </g>
    </g>
</svg>