<?xml version="1.0" encoding="UTF-8" standalone="no"?>
<svg width="45px" height="25px" viewBox="0 0 45 25" version="1.1" xmlns="http://www.w3.org/2000/svg" xmlns:xlink="http://www.w3.org/1999/xlink">
    <!-- Generator: Sketch 3.8.3 (29802) - http://www.bohemiancoding.com/sketch -->
    <title>Imported Layers Copy 2</title>
    <desc>Created with Sketch.</desc>
    <defs></defs>
    <g id="Page-1-Copy" stroke="none" stroke-width="1" fill="none" fill-rule="evenodd">
        <g id="Desktop-HD-Copy-42" transform="translate(-59.000000, -66.000000)">
            <g id="Imported-Layers-Copy-2" transform="translate(81.936504, 78.500000) rotate(-90.000000) translate(-81.936504, -78.500000) translate(69.436504, 56.500000)">
                <path d="M17.5741133,4.26401748 C17.5739697,4.26290314 17.5738261,4.26164951 17.5735389,4.26053517 L14.4198479,7.3198131 C14.4059195,7.33402092 14.3925656,7.34864661 14.3793552,7.36313302 L12.210699,9.46686541 L10.0437659,7.36466523 C8.88728323,6.21494616 8.89446279,4.37433702 10.0686071,3.23520417 C11.2517977,2.08771377 13.170031,2.08771377 14.353078,3.23534346 C14.4940845,3.37212855 14.6169984,3.51949986 14.724261,3.67397508 L16.4694671,1.98087654 C16.348707,1.83573391 16.2189006,1.69518792 16.0797608,1.56021363 C13.9431255,-0.512735148 10.4787033,-0.512595855 8.34192428,1.56021363 C7.55016302,2.32827166 7.05247631,3.27337027 6.84757182,4.26401748 L2.45196143,0 L3.63797881e-12,0 L3.63797881e-12,22.2727078 L2.44219723,22.2727078 L2.44219723,3.34078777 L8.28936994,9.01291164 C8.30703164,9.03060176 8.32368821,9.04898836 8.34178069,9.06653919 L8.3432166,9.06514627 L14.2216922,14.7677752 L14.2198255,14.769586 C14.2389231,14.7860225 14.2571592,14.803434 14.275826,14.8202884 L14.353078,14.8952277 L14.3546575,14.8938347 C14.9007344,15.4249565 15.2404709,16.1555449 15.2404709,16.965112 C15.2404709,18.5880072 13.8841095,19.9037628 12.2109862,19.9037628 C10.5380064,19.9037628 9.18164496,18.5880072 9.18164496,16.965112 C9.18164496,15.9495315 9.7127884,15.0541602 10.5203447,14.5263815 L8.77614373,12.8343973 C7.534368,13.8074937 6.73944773,15.2956932 6.73944773,16.9649727 C6.73944773,19.8963803 9.18925529,22.2727078 12.2109862,22.2727078 C15.2328606,22.2727078 17.6826682,19.8963803 17.6826682,16.9649727 C17.6826682,15.409495 16.992713,14.0103033 15.8936668,13.0394357 L13.937669,11.1419952 L16.0786121,9.06514627 L16.0799044,9.06653919 C16.0945507,9.05247066 16.1074739,9.03742709 16.121833,9.02321927 L21.9796315,3.34078777 L21.9796315,22.2727078 L24.4218287,22.2727078 L24.4218287,0 L21.9698673,0 L17.5741133,4.26401748" id="Fill-1" fill="#000000"></path>
                <polygon id="Fill-2" fill="#3D3D3D" points="3.63797881e-12 28.4595711 2.46068423 28.4595711 2.46068423 43.1843052 3.63797881e-12 43.1843052"></polygon>
            </g>
        </g>
    </g>
</svg>