<?xml version="1.0" encoding="UTF-8"?>
<svg width="42px" height="25px" viewBox="0 0 42 25" version="1.1" xmlns="http://www.w3.org/2000/svg" xmlns:xlink="http://www.w3.org/1999/xlink">
    <!-- Generator: Sketch 42 (36781) - http://www.bohemiancoding.com/sketch -->
    <title>logo</title>
    <desc>Created with Sketch.</desc>
    <defs></defs>
    <g id="Page-1" stroke="none" stroke-width="1" fill="none" fill-rule="evenodd">
        <g id="logo" fill-rule="nonzero" fill="#000000">
            <path d="M13.3452874,8.39437355 C13.331359,8.40858137 11.1361385,10.5414259 11.1361385,10.5414259 L8.96920545,8.43922568 C7.81272278,7.28950661 7.81990234,5.44889747 8.99404665,4.30976462 C10.1772372,3.16227422 12.0954705,3.16227422 13.2785175,4.30990391 C13.419524,4.446689 13.5424379,4.59406031 13.6497005,4.74853553 L15.3949066,3.05543699 C15.2741465,2.91029436 15.1443401,2.76974837 15.0052003,2.63477408 C12.868565,0.561825302 9.40414285,0.561964595 7.26736383,2.63477408 C6.47560257,3.40283211 5.97791586,4.34793072 5.77301137,5.33857793 L1.37740098,1.07456045 L-1.07456045,1.07456045 L-1.07456045,23.3472682 L1.36763678,23.3472682 L1.36763678,4.41534822 L7.21480949,10.0874721 C7.23247119,10.1051622 7.24912776,10.1235488 7.26722024,10.1410996 L13.1471317,15.8423356 C13.1643626,15.8605829 13.1825987,15.8779944 13.2012655,15.8948488 L13.2785175,15.9697881 C13.8261739,16.4995169 14.1659104,17.2301053 14.1659104,18.0396724 C14.1659104,19.6625676 12.809549,20.9783232 11.1364257,20.9783232 C9.46344595,20.9783232 8.10708451,19.6625676 8.10708451,18.0396724 C8.10708451,17.0240919 8.63822795,16.1287206 9.44578425,15.6009419 L7.70158328,13.9089577 C6.45980755,14.8820541 5.66488728,16.3702536 5.66488728,18.0395331 C5.66488728,20.9709407 8.11469484,23.3472682 11.1364257,23.3472682 C14.1583001,23.3472682 16.6081077,20.9709407 16.6081077,18.0395331 C16.6081077,16.4840554 15.9181525,15.0848637 14.8191063,14.1139961 L12.8631085,12.2165556 L15.0040516,10.1397067 C15.0199902,10.1270311 20.905071,4.41534822 20.905071,4.41534822 L20.905071,23.3472682 L23.3472682,23.3472682 L23.3472682,1.07456045 L20.8953068,1.07456045 L16.4995528,5.33857793 C16.4994092,5.33746359 13.3452874,8.39437355 13.3452874,8.39437355 Z" id="Fill-1" transform="translate(11.136354, 12.210914) rotate(-90.000000) translate(-11.136354, -12.210914) "></path>
            <polygon id="Fill-2" transform="translate(34.362367, 23.230342) rotate(-90.000000) translate(-34.362367, -23.230342) " points="33.1320249 15.8679751 35.5927092 15.8679751 35.5927092 30.5927092 33.1320249 30.5927092"></polygon>
        </g>
    </g>
</svg>