<?xml version="1.0" encoding="UTF-8" standalone="no"?>
<svg width="1010px" height="373px" viewBox="0 0 1010 373" version="1.1" xmlns="http://www.w3.org/2000/svg" xmlns:xlink="http://www.w3.org/1999/xlink">
    <!-- Generator: Sketch 3.8.3 (29802) - http://www.bohemiancoding.com/sketch -->
    <title>Group 3</title>
    <desc>Created with Sketch.</desc>
    <defs></defs>
    <g id="Page-1-Copy" stroke="none" stroke-width="1" fill="none" fill-rule="evenodd">
        <g id="Desktop-HD-Copy-50" transform="translate(-250.000000, -220.000000)">
            <g id="Group-3" transform="translate(250.000000, 220.000000)">
                <g id="Group-9-Copy" transform="translate(165.000000, 200.000000)">
                    <rect id="Rectangle-868" fill="#5D70B5" x="136.381579" y="18.2105263" width="363.684211" height="9.10526316" rx="4.55263158"></rect>
                    <rect id="Rectangle-868-Copy-12" fill="#5D70B5" x="27.2763158" y="91.0526316" width="363.684211" height="9.10526316" rx="4.55263158"></rect>
                    <rect id="Rectangle-868-Copy-22" fill="#F15D58" x="27.2763158" y="163.894737" width="363.684211" height="9.10526316" rx="4.55263158"></rect>
                    <rect id="Rectangle-868-Copy-2" fill="#F2AAB6" x="136.381579" y="54.6315789" width="272.763158" height="9.10526316" rx="4.55263158"></rect>
                    <rect id="Rectangle-868-Copy-13" fill="#5D70B5" x="27.2763158" y="127.473684" width="272.763158" height="9.10526316" rx="4.55263158"></rect>
                    <rect id="Rectangle-868-Copy-5" fill="#F15D58" x="418.236842" y="54.6315789" width="272.763158" height="9.10526316" rx="4.55263158"></rect>
                    <rect id="Rectangle-868-Copy" fill="#434343" x="218.210526" y="36.4210526" width="363.684211" height="9.10526316" rx="4.55263158"></rect>
                    <rect id="Rectangle-868-Copy-14" fill="#F2AAB6" x="109.105263" y="109.263158" width="363.684211" height="9.10526316" rx="4.55263158"></rect>
                    <rect id="Rectangle-868-Copy-3" fill="#434343" x="218.210526" y="72.8421053" width="90.9210526" height="9.10526316" rx="4.55263158"></rect>
                    <rect id="Rectangle-868-Copy-15" fill="#F15D58" x="500.065789" y="145.684211" width="90.9210526" height="9.10526316" rx="4.55263158"></rect>
                    <rect id="Rectangle-868-Copy-6" fill="#D8D8D8" x="190.934211" y="72.8421053" width="18.1842105" height="9.10526316" rx="4.55263158"></rect>
                    <rect id="Rectangle-868-Copy-16" fill="#434343" x="472.789474" y="145.684211" width="18.1842105" height="9.10526316" rx="4.55263158"></rect>
                    <rect id="Rectangle-868-Copy-23" fill="#F15D58" x="472.789474" y="0" width="18.1842105" height="9.10526316" rx="4.55263158"></rect>
                    <rect id="Rectangle-868-Copy-8" fill="#F2AAB6" x="190.934211" y="36.4210526" width="18.1842105" height="9.10526316" rx="4.55263158"></rect>
                    <rect id="Rectangle-868-Copy-17" fill="#434343" x="81.8289474" y="109.263158" width="18.1842105" height="9.10526316" rx="4.55263158"></rect>
                    <rect id="Rectangle-868-Copy-9" fill="#F15D58" x="97.2855263" y="36.4210526" width="18.1842105" height="9.10526316" rx="4.55263158"></rect>
                    <rect id="Rectangle-868-Copy-18" fill="#F15D58" x="529.160526" y="109.263158" width="18.1842105" height="9.10526316" rx="4.55263158"></rect>
                    <rect id="Rectangle-868-Copy-10" fill="#F2AAB6" x="15.4565789" y="36.4210526" width="18.1842105" height="9.10526316" rx="4.55263158"></rect>
                    <rect id="Rectangle-868-Copy-11" fill="#434343" x="109.105263" y="18.2105263" width="18.1842105" height="9.10526316" rx="4.55263158"></rect>
                    <rect id="Rectangle-868-Copy-19" fill="#F2AAB6" x="0" y="91.0526316" width="18.1842105" height="9.10526316" rx="4.55263158"></rect>
                    <rect id="Rectangle-868-Copy-7" fill="#434343" x="163.657895" y="72.8421053" width="18.1842105" height="9.10526316" rx="4.55263158"></rect>
                    <rect id="Rectangle-868-Copy-20" fill="#F15D58" x="445.513158" y="145.684211" width="18.1842105" height="9.10526316" rx="4.55263158"></rect>
                    <rect id="Rectangle-868-Copy-4" fill="#F2AAB6" x="409.144737" y="72.8421053" width="181.842105" height="9.10526316" rx="4.55263158"></rect>
                    <rect id="Rectangle-868-Copy-21" fill="#5D70B5" x="409.144737" y="163.894737" width="181.842105" height="9.10526316" rx="4.55263158"></rect>
                </g>
                <g id="Group-9-Copy-2" transform="translate(319.000000, 0.000000)">
                    <rect id="Rectangle-868" fill="#5D70B5" x="136.381579" y="18.2105263" width="363.684211" height="9.10526316" rx="4.55263158"></rect>
                    <rect id="Rectangle-868-Copy-12" fill="#5D70B5" x="27.2763158" y="91.0526316" width="363.684211" height="9.10526316" rx="4.55263158"></rect>
                    <rect id="Rectangle-868-Copy-22" fill="#F15D58" x="27.2763158" y="163.894737" width="363.684211" height="9.10526316" rx="4.55263158"></rect>
                    <rect id="Rectangle-868-Copy-2" fill="#F2AAB6" x="136.381579" y="54.6315789" width="272.763158" height="9.10526316" rx="4.55263158"></rect>
                    <rect id="Rectangle-868-Copy-13" fill="#5D70B5" x="27.2763158" y="127.473684" width="272.763158" height="9.10526316" rx="4.55263158"></rect>
                    <rect id="Rectangle-868-Copy-5" fill="#F15D58" x="418.236842" y="54.6315789" width="272.763158" height="9.10526316" rx="4.55263158"></rect>
                    <rect id="Rectangle-868-Copy" fill="#434343" x="218.210526" y="36.4210526" width="363.684211" height="9.10526316" rx="4.55263158"></rect>
                    <rect id="Rectangle-868-Copy-14" fill="#F2AAB6" x="109.105263" y="109.263158" width="363.684211" height="9.10526316" rx="4.55263158"></rect>
                    <rect id="Rectangle-868-Copy-3" fill="#434343" x="218.210526" y="72.8421053" width="90.9210526" height="9.10526316" rx="4.55263158"></rect>
                    <rect id="Rectangle-868-Copy-15" fill="#F15D58" x="500.065789" y="145.684211" width="90.9210526" height="9.10526316" rx="4.55263158"></rect>
                    <rect id="Rectangle-868-Copy-6" fill="#D8D8D8" x="190.934211" y="72.8421053" width="18.1842105" height="9.10526316" rx="4.55263158"></rect>
                    <rect id="Rectangle-868-Copy-16" fill="#434343" x="472.789474" y="145.684211" width="18.1842105" height="9.10526316" rx="4.55263158"></rect>
                    <rect id="Rectangle-868-Copy-23" fill="#F15D58" x="472.789474" y="0" width="18.1842105" height="9.10526316" rx="4.55263158"></rect>
                    <rect id="Rectangle-868-Copy-8" fill="#F2AAB6" x="190.934211" y="36.4210526" width="18.1842105" height="9.10526316" rx="4.55263158"></rect>
                    <rect id="Rectangle-868-Copy-17" fill="#434343" x="81.8289474" y="109.263158" width="18.1842105" height="9.10526316" rx="4.55263158"></rect>
                    <rect id="Rectangle-868-Copy-9" fill="#F15D58" x="97.2855263" y="36.4210526" width="18.1842105" height="9.10526316" rx="4.55263158"></rect>
                    <rect id="Rectangle-868-Copy-18" fill="#F15D58" x="529.160526" y="109.263158" width="18.1842105" height="9.10526316" rx="4.55263158"></rect>
                    <rect id="Rectangle-868-Copy-10" fill="#F2AAB6" x="15.4565789" y="36.4210526" width="18.1842105" height="9.10526316" rx="4.55263158"></rect>
                    <rect id="Rectangle-868-Copy-11" fill="#434343" x="109.105263" y="18.2105263" width="18.1842105" height="9.10526316" rx="4.55263158"></rect>
                    <rect id="Rectangle-868-Copy-19" fill="#F2AAB6" x="0" y="91.0526316" width="18.1842105" height="9.10526316" rx="4.55263158"></rect>
                    <rect id="Rectangle-868-Copy-7" fill="#434343" x="163.657895" y="72.8421053" width="18.1842105" height="9.10526316" rx="4.55263158"></rect>
                    <rect id="Rectangle-868-Copy-20" fill="#F15D58" x="445.513158" y="145.684211" width="18.1842105" height="9.10526316" rx="4.55263158"></rect>
                    <rect id="Rectangle-868-Copy-4" fill="#F2AAB6" x="409.144737" y="72.8421053" width="181.842105" height="9.10526316" rx="4.55263158"></rect>
                    <rect id="Rectangle-868-Copy-21" fill="#5D70B5" x="409.144737" y="163.894737" width="181.842105" height="9.10526316" rx="4.55263158"></rect>
                </g>
                <g id="Group-9-Copy-3" transform="translate(0.000000, 109.000000)">
                    <rect id="Rectangle-868" fill="#5D70B5" x="136.381579" y="18.2105263" width="363.684211" height="9.10526316" rx="4.55263158"></rect>
                    <rect id="Rectangle-868-Copy-12" fill="#5D70B5" x="27.2763158" y="91.0526316" width="363.684211" height="9.10526316" rx="4.55263158"></rect>
                    <rect id="Rectangle-868-Copy-22" fill="#F15D58" x="27.2763158" y="163.894737" width="363.684211" height="9.10526316" rx="4.55263158"></rect>
                    <rect id="Rectangle-868-Copy-2" fill="#F2AAB6" x="136.381579" y="54.6315789" width="272.763158" height="9.10526316" rx="4.55263158"></rect>
                    <rect id="Rectangle-868-Copy-13" fill="#5D70B5" x="27.2763158" y="127.473684" width="272.763158" height="9.10526316" rx="4.55263158"></rect>
                    <rect id="Rectangle-868-Copy-5" fill="#F15D58" x="418.236842" y="54.6315789" width="272.763158" height="9.10526316" rx="4.55263158"></rect>
                    <rect id="Rectangle-868-Copy" fill="#434343" x="218.210526" y="36.4210526" width="363.684211" height="9.10526316" rx="4.55263158"></rect>
                    <rect id="Rectangle-868-Copy-14" fill="#F2AAB6" x="109.105263" y="109.263158" width="363.684211" height="9.10526316" rx="4.55263158"></rect>
                    <rect id="Rectangle-868-Copy-3" fill="#434343" x="218.210526" y="72.8421053" width="90.9210526" height="9.10526316" rx="4.55263158"></rect>
                    <rect id="Rectangle-868-Copy-15" fill="#F15D58" x="500.065789" y="145.684211" width="90.9210526" height="9.10526316" rx="4.55263158"></rect>
                    <rect id="Rectangle-868-Copy-6" fill="#D8D8D8" x="190.934211" y="72.8421053" width="18.1842105" height="9.10526316" rx="4.55263158"></rect>
                    <rect id="Rectangle-868-Copy-16" fill="#434343" x="472.789474" y="145.684211" width="18.1842105" height="9.10526316" rx="4.55263158"></rect>
                    <rect id="Rectangle-868-Copy-23" fill="#F15D58" x="472.789474" y="0" width="18.1842105" height="9.10526316" rx="4.55263158"></rect>
                    <rect id="Rectangle-868-Copy-8" fill="#F2AAB6" x="190.934211" y="36.4210526" width="18.1842105" height="9.10526316" rx="4.55263158"></rect>
                    <rect id="Rectangle-868-Copy-17" fill="#434343" x="81.8289474" y="109.263158" width="18.1842105" height="9.10526316" rx="4.55263158"></rect>
                    <rect id="Rectangle-868-Copy-9" fill="#F15D58" x="97.2855263" y="36.4210526" width="18.1842105" height="9.10526316" rx="4.55263158"></rect>
                    <rect id="Rectangle-868-Copy-18" fill="#F15D58" x="529.160526" y="109.263158" width="18.1842105" height="9.10526316" rx="4.55263158"></rect>
                    <rect id="Rectangle-868-Copy-10" fill="#F2AAB6" x="15.4565789" y="36.4210526" width="18.1842105" height="9.10526316" rx="4.55263158"></rect>
                    <rect id="Rectangle-868-Copy-11" fill="#434343" x="109.105263" y="18.2105263" width="18.1842105" height="9.10526316" rx="4.55263158"></rect>
                    <rect id="Rectangle-868-Copy-19" fill="#F2AAB6" x="0" y="91.0526316" width="18.1842105" height="9.10526316" rx="4.55263158"></rect>
                    <rect id="Rectangle-868-Copy-7" fill="#434343" x="163.657895" y="72.8421053" width="18.1842105" height="9.10526316" rx="4.55263158"></rect>
                    <rect id="Rectangle-868-Copy-20" fill="#F15D58" x="445.513158" y="145.684211" width="18.1842105" height="9.10526316" rx="4.55263158"></rect>
                    <rect id="Rectangle-868-Copy-4" fill="#F2AAB6" x="409.144737" y="72.8421053" width="181.842105" height="9.10526316" rx="4.55263158"></rect>
                    <rect id="Rectangle-868-Copy-21" fill="#5D70B5" x="409.144737" y="163.894737" width="181.842105" height="9.10526316" rx="4.55263158"></rect>
                </g>
            </g>
        </g>
    </g>
</svg>