<?xml version="1.0" encoding="UTF-8" standalone="no"?>
<svg width="412px" height="346px" viewBox="0 0 412 346" version="1.1" xmlns="http://www.w3.org/2000/svg" xmlns:xlink="http://www.w3.org/1999/xlink">
    <!-- Generator: Sketch 3.8.3 (29802) - http://www.bohemiancoding.com/sketch -->
    <title>Group 4</title>
    <desc>Created with Sketch.</desc>
    <defs>
        <path d="M16.2457268,43.01062 C18.3599902,34.9234514 20.0452007,0 20.0452007,0 L106.537792,0 C106.537792,0 108.330828,34.7855746 110.86092,43.01062 C113.391012,51.2356654 120.376607,55.5600363 124.605134,58.7348956 L1.97785927,58.7348956 C6.20638597,55.5600363 14.1314634,51.0977886 16.2457268,43.01062 Z" id="path-1"></path>
    </defs>
    <g id="Page-1-Copy" stroke="none" stroke-width="1" fill="none" fill-rule="evenodd">
        <g id="Desktop-HD-Copy-51" transform="translate(-515.000000, -158.000000)">
            <g id="Group-4" transform="translate(515.000000, 158.000000)">
                <path d="M35.2899012,333.393328 C37.5266293,330.658917 42.1962418,328.442239 45.7375538,328.442239 L366.262607,328.442239 C369.795958,328.442239 374.480688,330.667667 376.710259,333.393328 L382.644895,340.648448 C384.881624,343.382859 383.838523,345.599537 380.288147,345.599537 L31.7120136,345.599537 C28.1736892,345.599537 27.1256943,343.374109 29.3552651,340.648448 L35.2899012,333.393328 Z" id="Rectangle-991" fill="#000000" opacity="0.04"></path>
                <g id="Group-3-Copy">
                    <g id="Group-2">
                        <g id="//-Thunderbolt-Display">
                            <g id="::-stand" transform="translate(142.405867, 269.863034)">
                                <rect id="Rectangle-80" fill="#B2B2B2" x="0" y="63.4971844" width="126.582993" height="3.17485922"></rect>
                                <path d="M0.962404586,60.9626622 C1.42959545,59.7323007 2.87137955,58.7348956 4.18214319,58.7348956 L122.40085,58.7348956 C123.711872,58.7348956 125.153749,59.7332274 125.620588,60.9626622 L126.582993,63.4971844 L-1.00382395e-16,63.4971844 L0.962404586,60.9626622 Z" id="Rectangle-77" fill="#C3C3C3"></path>
                                <mask id="mask-2" fill="white">
                                    <use xlink:href="#path-1"></use>
                                </mask>
                                <use id="Mask" fill="#D8D8D8" xlink:href="#path-1"></use>
                                <rect id="Rectangle-123" fill="#B3B3B3" mask="url(#mask-2)" x="9.49372448" y="0" width="107.595544" height="3.17485922"></rect>
                            </g>
                            <g id="::-base">
                                <rect id="dark-bezel" fill="#3C3C3C" x="0" y="0" width="411.394727" height="269.863034" rx="4.8"></rect>
                                <path d="M205.699277,256.514192 C206.034448,256.642762 206.551974,256.81381 206.551974,256.81381 L207.695675,256.425703 C207.695675,256.425703 208.030115,256.331574 208.333537,256.331574 C208.636959,256.331574 209.325132,256.501713 209.631673,256.725533 C209.938214,256.949353 210.195042,257.298962 210.195042,257.298962 C210.195042,257.298962 209.516824,257.705709 209.313483,258.301699 C209.110143,258.897689 209.148631,259.102425 209.148631,259.102425 C209.148631,259.102425 209.133825,260.009352 209.619813,260.516699 C210.1058,261.024046 210.444226,261.139037 210.444226,261.139037 C210.444226,261.139037 210.264914,261.797246 209.92412,262.310639 C209.583327,262.824032 209.351086,263.121254 209.351086,263.121254 C209.351086,263.121254 208.957459,263.553267 208.659197,263.643591 C208.360935,263.733915 208.467486,263.726555 208.32056,263.726555 C208.173633,263.726555 207.86948,263.661729 207.86948,263.661729 L207.282371,263.445249 C207.282371,263.445249 206.937341,263.337734 206.697842,263.337734 C206.458342,263.337734 206.007589,263.466131 206.007589,263.466131 C206.007589,263.466131 205.526569,263.650023 205.376331,263.688289 C205.226093,263.726555 205.110339,263.73461 205.054849,263.73461 C204.999359,263.73461 204.801814,263.732408 204.609776,263.619426 C204.417737,263.506444 204.189887,263.360605 203.860202,262.924188 C203.530518,262.487771 202.802105,261.453683 202.58469,259.982831 C202.367275,258.511978 202.903245,257.668737 202.903245,257.668737 C202.903245,257.668737 203.527206,256.381758 204.9632,256.356666 C205.254988,256.351567 205.364105,256.385621 205.699277,256.514192 Z M206.483141,256.235784 C206.483141,256.235784 206.376513,255.322945 207.04341,254.692205 C207.710308,254.061464 208.432463,253.988738 208.432463,253.988738 C208.432463,253.988738 208.580508,254.568019 208.019718,255.432315 C207.458928,256.296611 206.483141,256.235784 206.483141,256.235784 Z" id="logo" fill="#FFFFFF"></path>
                                <rect id="camera-on-light" fill="#61FFB2" x="213.608801" y="9.52457766" width="3.16457483" height="3.17485922" rx="1.58228741"></rect>
                                <rect id="camera" fill="#5C5C5C" x="202.532789" y="7.93714805" width="6.32914965" height="6.34971844" rx="3.16457483"></rect>
                                <rect id="microphone" fill="#545454" x="194.621352" y="9.52457766" width="3.16457483" height="3.17485922" rx="1.58228741"></rect>
                            </g>
                            <rect id="wallpaper" fill="#D770A2" x="22.1520238" y="22.2240145" width="367.09068" height="225.415005"></rect>
                            <g id="::-screen" transform="translate(22.152024, 22.224015)">
                                <g id="::-contents" transform="translate(113.924694, 206.365849)"></g>
                                <polygon id="glare" fill="#CD6799" points="0 0 224.684813 0 0 225.415005"></polygon>
                            </g>
                        </g>
                    </g>
                    <g id="Group-5" transform="translate(91.121643, 89.352040)" fill="#FFFFFF">
                        <path d="M165.027575,57.80513 C164.064743,58.8197195 162.921397,59.747521 161.597503,60.5885623 C160.273609,61.4296036 158.996539,61.850118 157.766254,61.850118 C156.535969,61.850118 155.920835,61.3962295 155.920835,60.4884389 C155.920835,59.7675463 156.188285,58.8731189 156.723191,57.80513 C156.990644,57.2978352 157.224663,56.8639712 157.425253,56.5035249 C157.625843,56.1430786 157.906664,55.6891901 158.267726,55.1418458 C158.628788,54.5945014 158.849434,54.2407354 158.92967,54.080537 C165.295059,43.13365 168.477705,37.3532464 168.477705,36.7391527 C168.477705,36.1250591 168.143393,35.4442263 167.47476,34.696634 C166.806127,33.9490417 166.050583,33.5752512 165.208105,33.5752512 C164.365627,33.5752512 163.148733,34.1559615 161.557385,35.3173995 C159.966038,36.4788375 158.615419,37.6536078 157.505488,38.8417455 C156.395557,40.0298832 155.8406,40.7641146 155.8406,41.0444618 C155.8406,41.3248089 156.114735,41.7586729 156.663014,42.3460668 C157.211294,42.9334607 157.485429,43.3272758 157.485429,43.5275237 C157.485429,43.7277716 156.749944,45.016014 155.278951,47.3922895 C153.807957,49.768565 152.336986,52.3583994 150.865993,55.1618705 C150.591189,55.6856015 150.342054,56.1860359 150.118589,56.6631742 C149.625892,57.1910188 149.126163,57.7118417 148.619397,58.2256485 C147.763546,59.0933896 146.787356,59.9077189 145.690798,60.6686611 C144.594239,61.4296032 143.644794,61.8100686 142.842434,61.8100686 C142.040074,61.8100686 141.6389,61.0758372 141.6389,59.6073524 C141.6389,59.1267573 141.679018,58.7529668 141.759254,58.4859695 C142.160434,56.3232919 143.049702,53.7134329 144.427087,50.6563145 C145.804472,47.599196 147.061483,45.0894596 148.19816,43.1270298 C149.334836,41.1646001 150.077008,40.0098543 150.424697,39.6627579 C150.772387,39.3156615 150.946229,38.7683254 150.946229,38.0207331 C150.946229,36.6323474 149.929921,35.938165 147.897276,35.938165 C147.01468,35.938165 146.352743,36.0649868 145.911445,36.3186342 C145.470147,36.5722815 144.928563,37.1796912 144.286675,38.1408812 C144.045967,37.4199887 143.470951,36.8192539 142.56161,36.3386588 C141.652268,35.8580638 140.475491,35.6177699 139.031244,35.6177699 C135.286897,35.6177699 131.194923,37.3532259 126.755198,40.8241901 C124.642317,42.479573 122.70331,44.3151516 120.938118,46.3309808 C119.172926,48.34681 117.748759,50.5762035 116.665573,53.0192283 C116.030286,54.4520578 115.5813,55.8802827 115.31861,57.3039177 C115.150668,57.4529387 114.97783,57.6066596 114.800095,57.7650806 C113.676791,58.7529704 112.446525,59.6674222 111.109258,60.5084635 C109.771992,61.3495049 108.555097,61.7700192 107.458539,61.7700192 C106.36198,61.7700192 105.813709,61.2493824 105.813709,60.2080931 C105.813709,59.7007984 105.867199,59.0466649 105.97418,58.2456732 C106.214888,56.4834914 108.280934,52.0981274 112.17238,45.0894498 C116.063825,38.0807721 119.092689,32.9211278 121.25906,29.6103619 C121.900948,29.5836622 125.324299,29.2632703 131.529216,28.6491767 C135.581113,28.6491767 135.931627,22.8391625 132.311403,22.8391625 C128.69118,22.8391625 127.838389,22.9221136 125.752253,23.0823119 C125.805744,22.975513 126.213604,22.3280544 126.975846,21.1399167 C127.738088,19.951779 128.400025,18.8904808 128.961677,17.9559905 C129.523329,17.0215001 129.555546,16.7545089 129.313997,15.6559734 C129.072448,14.5574379 127.509362,14.375981 126.285769,14.5979206 C125.062176,14.8198601 123.926898,15.7933188 123.08442,16.7545089 C122.241942,17.715699 120.697422,19.8783442 118.450815,23.2425095 C118.450815,23.2425095 110.076625,24.1611834 107.458539,25.2650035 C104.840453,26.3688237 103.788732,27.5782516 103.556989,28.447071 C103.325246,29.3158904 103.72758,29.9240806 104.449704,30.2311274 C105.171828,30.5381743 107.458539,30.6663643 112.473263,30.1710533 L113.997739,29.9708064 C111.109244,34.5097596 108.220791,39.3690365 105.332296,44.5487831 C103.567104,47.7260503 102.102819,50.7230494 100.939397,53.5398703 C100.898512,53.6388586 100.858338,53.7373275 100.818873,53.835277 C100.677405,53.8704939 100.550423,53.9322224 100.437925,54.0204629 C100.250707,54.1673114 99.7626124,54.6679238 98.9736252,55.5223149 C98.184638,56.3767061 97.3889763,57.2177348 96.5866164,58.0454263 C94.3934993,60.3149029 92.5213543,61.5564214 90.9701251,61.7700192 C90.1142745,61.7700192 89.6863556,61.2093334 89.6863556,60.087945 C89.6863556,58.1121654 91.2643065,53.8669729 94.4202555,47.3522401 C94.6342181,46.9250445 95.6839566,45.0961408 97.5695024,41.8654742 C99.4550482,38.6348075 100.518159,36.6457079 100.758867,35.8981156 C100.758867,35.6578181 100.651887,35.3240765 100.437925,34.8968809 C100.223962,34.4696853 100.036748,34.2427411 99.8762756,34.2160414 C99.7158036,34.1893416 99.4884717,34.175992 99.1942731,34.175992 C97.3755906,34.2293914 95.891247,34.6298813 94.7411978,35.3774736 C94.3667632,35.6177711 93.7984335,36.2719045 93.0361915,37.3398935 C92.2739496,38.4078825 91.4916604,39.7228242 90.6893005,41.2847581 C89.8869406,42.8466919 86.9316259,46.4043769 81.8232678,51.9579195 C76.7149097,57.5114622 73.5188907,60.2881919 72.2351148,60.2881919 C71.9409162,60.2881919 71.7938191,60.087947 71.7938191,59.6874511 C71.7938191,58.1121674 74.4415671,52.5453583 79.7371425,42.986857 C81.5290796,39.7828901 82.4250347,37.9806857 82.4250347,37.5801898 C82.4250347,37.179694 82.1308405,36.6590571 81.5424433,36.0182638 C80.954046,35.3774704 80.2720503,35.0637533 79.4964357,35.0771032 C78.7208211,35.090453 77.9251595,35.6244395 77.1094269,36.6790786 C76.2936943,37.7337177 75.2640145,39.3557017 74.0203567,41.5450791 C72.7766988,43.7344565 71.773764,45.4765874 71.0115221,46.771524 C70.2492801,48.0664606 69.6943229,49.0343111 69.3466336,49.6751045 C68.9989443,50.3158979 68.4707319,51.3438219 67.7619807,52.7589073 C67.0532294,54.1739927 66.5183308,55.3621126 66.1572689,56.3233027 C65.7962069,57.2844927 65.455209,58.3724902 65.1342651,59.5873277 C64.8133211,60.8021651 64.6528515,61.9769354 64.6528515,63.1116737 C64.6528515,64.246412 65.1142016,65.3477591 66.0369155,66.415748 C66.9596294,67.483737 68.1698374,68.0177235 69.6675759,68.0177235 C73.4386675,68.0177235 78.6405562,63.8659786 85.2733982,55.5623643 C84.123349,57.6449428 83.548333,59.7675391 83.548333,61.9302168 C83.548333,64.0928944 84.1634664,65.6080811 85.3937516,66.4758221 C86.6240368,67.3435632 87.9612832,67.7774272 89.4055311,67.7774272 C91.7591202,67.7774272 94.2463986,66.7027794 96.867441,64.5534516 C97.7932922,63.7942278 98.6040068,63.0758183 99.2995871,62.3982209 C99.5037508,63.6097051 99.9567443,64.6218055 100.658573,65.4345381 C101.661522,66.5959761 103.232787,67.3769313 105.372414,67.7774272 C105.720103,67.8575264 106.094532,67.8975753 106.495712,67.8975753 C108.34114,67.8975753 110.18654,67.3101902 112.031967,66.1354023 C113.083736,65.4658531 114.274493,64.60985 115.604251,63.5673833 C115.971955,64.4990202 116.519631,65.3016251 117.247281,65.9752048 C118.39733,67.0698935 119.881674,67.6172296 121.700356,67.6172296 C123.519039,67.6172296 125.865906,66.616005 128.741029,64.6135257 C131.616152,62.6110463 134.163607,60.1680582 136.383469,57.2844879 C135.848562,58.4859755 135.581113,59.8810152 135.581113,61.4696488 C135.581113,63.0582824 136.089267,64.5067207 137.105589,65.8150072 C138.121912,67.1232937 139.706549,67.7774272 141.859548,67.7774272 C144.012547,67.7774272 146.406218,66.7094542 149.040633,64.5734763 C149.194865,64.4484252 149.345912,64.3244267 149.493773,64.2014807 C149.858399,64.7702076 150.342551,65.3347484 150.946229,65.895106 C152.470713,67.3101914 154.289368,68.0177235 156.402249,68.0177235 C158.456543,68.0177235 160.864758,67.2416187 163.626965,65.6893865 C163.801157,65.7596768 163.993888,65.8349249 164.20516,65.9151307 C165.154619,66.275577 165.91685,66.4557974 166.491874,66.4557974 C167.066899,66.4557974 167.768953,65.881762 168.598058,64.7336738 C171.459809,60.8889135 174.114243,57.6249211 176.561441,54.9415988 C179.008639,52.2582765 181.977326,49.2212284 185.467591,45.8303634 C188.957857,42.4394984 191.144255,40.7040424 192.026851,40.6239432 C190.127932,43.026918 189.13837,45.1094653 189.13837,46.9517462 C189.13837,47.7794377 189.372388,48.5003195 189.840431,49.1144131 C190.308474,49.7285068 190.963725,50.035549 191.806203,50.035549 C192.648681,50.035549 193.404225,49.6083598 194.072858,48.7539686 C195.329889,47.071886 196.700567,45.0093632 198.184932,42.5663384 C199.669298,40.1233136 200.41147,38.3811828 200.41147,37.3398935 C200.41147,36.2986043 200.0571,35.4509007 199.348348,34.7967575 C198.639597,34.1426142 197.736956,33.8155475 196.640397,33.8155475 C192.200672,33.8155475 186.824942,37.3932569 180.513044,44.5487831 L182.197991,42.0256717 C184.524835,38.5547075 185.688239,36.1918174 185.688239,34.9369303 C185.688239,34.1359386 185.3673,33.7354487 184.725412,33.7354487 C181.863662,33.7354487 179.831047,34.4963795 178.627507,36.0182638 C177.985619,36.8192555 177.156527,38.100823 176.140204,39.8630049 C175.658788,40.717396 174.187817,43.2004332 171.727247,47.3121907 C169.321576,51.332208 167.535886,54.3568395 166.370128,56.3861713 C165.963489,56.8082716 165.515972,57.2812577 165.027575,57.80513 Z M142.56161,40.3836469 C137.988158,40.3836469 133.254306,42.9200827 128.35991,47.9930303 C126.621464,49.8086116 125.023454,51.9846065 123.565834,54.5210803 C122.108213,57.0575541 121.379414,58.7930102 121.379414,59.7275005 C121.379414,60.6619909 121.646863,61.129229 122.18177,61.129229 C122.930639,61.129229 125.016743,59.6540914 128.440146,56.7037718 C131.863548,53.7534523 134.136867,51.5841322 135.260171,50.1957465 C136.490456,48.6471625 138.924245,45.3764953 142.56161,40.3836469 L142.56161,40.3836469 Z" id="Combined-Shape-Copy"></path>
                        <path d="M24.3140456,54.1984165 C17.5604804,56.1757154 11.8200985,57.4262236 10.6000603,61.8474819 C9.38002208,66.2687403 16.7962192,66.2422755 20.1317827,66.2422755 C23.4673462,66.2422755 27.136411,65.7470707 31.1390872,64.7566461 C35.1417633,63.7662215 38.622671,62.5538234 41.5819144,61.1194154 C44.5411579,59.6850075 46.9872011,58.1823169 48.9201174,56.6112986 C50.8530337,55.0402803 51.8194773,53.674198 51.8194773,52.5130105 C51.8194773,51.04445 50.1089576,49.6783676 46.6878669,48.4147225 C43.2667761,47.1510773 38.2977163,45.7593809 31.7805385,44.2395915 C25.2633606,42.7198021 20.4910106,40.7987488 17.4633453,38.4763739 C14.43568,36.1539991 12.92187,33.3279162 12.92187,29.9980405 C12.92187,26.6681648 14.1192338,23.4834853 16.5139973,20.4439065 C18.9087609,17.4043277 22.0304593,14.706315 25.8791864,12.3497876 C29.7279135,9.99326018 33.9272394,7.89290856 38.4772901,6.04866971 C47.8852897,2.25773431 56.6089402,0.362295036 64.6485035,0.362295036 C67.7274851,0.362295036 82.5337295,1.65051174 78.2907195,8.37041843 C74.0477095,15.0903251 59.6566476,19.4277722 55.4372624,18.8860808 C51.2178773,18.3443894 73.1381347,7.76732001 66.3450676,7.52825176 C62.1667774,7.3812053 52.8372704,10.2664828 48.0990597,11.9399588 C43.3608491,13.6134348 39.2470491,15.500336 35.7575366,17.6007192 C32.268024,19.7011023 29.3601405,21.7673019 27.0337988,23.7993798 C24.7074571,25.8314578 23.5443037,27.2658443 23.5443037,28.1025823 C23.5443037,28.9393203 23.8008816,29.6308995 24.3140452,30.1773406 C25.7509034,31.7142063 29.7364143,33.3193531 36.2706976,34.9928291 C43.0444573,36.7346102 47.5602293,38.1348446 49.8181492,39.1935744 C52.0760691,40.2523041 53.9490882,41.2597898 55.4372627,42.2160618 C56.9254372,43.1723338 58.1142484,44.1456675 59.003732,45.136092 C61.0905973,47.526772 62.1340143,49.9515682 62.1340143,52.4105533 C62.1340143,54.8695385 61.4754643,57.1748024 60.1583443,59.3264144 C58.8412244,61.4780264 56.8570215,63.561302 54.2056762,65.5763037 C51.5543309,67.5913054 48.4326324,69.3842885 44.8404871,70.9553068 C36.9719784,74.4730216 27.5983303,76.2318527 16.7192618,76.2318527 C8.78233123,76.2318527 3.71919288,74.131501 1.5296948,69.9307348 C0.948109371,68.8720051 -0.144142513,65.933218 1.01737062,61.8474819 C2.17888376,57.7617459 5.23972107,53.6165166 16.7192618,51.0156195 C28.1988025,48.4147225 40.4384298,49.9788531 44.2684829,51.0156195 C47.5060659,51.8920088 31.0676107,52.2211176 24.3140456,54.1984165 Z" id="Path-Copy"></path>
                        <path d="M176.22044,23.2264897 C176.22044,24.748374 175.511699,26.2769103 174.094196,27.8121445 C172.676694,29.3473786 171.199037,30.1149842 169.66118,30.1149842 C168.123324,30.1149842 167.354407,29.3140045 167.354407,27.712021 C167.354407,26.1100375 168.029716,24.5815013 169.380356,23.1263663 C170.730995,21.6712313 172.222024,20.9436747 173.85349,20.9436747 C174.575614,20.9436747 175.15063,21.1439196 175.578555,21.5444155 C176.00648,21.9449114 176.22044,22.5055972 176.22044,23.2264897 L176.22044,23.2264897 Z" id="Path-Copy-2"></path>
                        <path d="M228.544039,57.6263575 C225.513095,61.5466556 224.787794,62.2793592 222.884312,63.8742947 C220.980831,65.4692302 219.109049,66.8482814 216.75546,66.8482814 C215.311212,66.8482814 213.973965,66.4144174 212.74368,65.5466764 C211.513395,64.6789353 210.898262,63.1637487 210.898262,61.001071 C210.898262,58.8383933 211.473278,56.7157971 212.623327,54.6332186 C205.990485,62.9368329 200.788596,67.0885777 197.017505,67.0885777 C195.519766,67.0885777 194.309558,66.5545913 193.386844,65.4866023 C192.46413,64.4186133 192.00278,63.3172662 192.00278,62.1825279 C192.00278,61.0477896 192.16325,59.8730194 192.484194,58.6581819 C192.805138,57.4433444 193.146135,56.355347 193.507197,55.3941569 C193.868259,54.4329668 194.403158,53.2448469 195.111909,51.8297615 C195.82066,50.4146761 196.348873,49.3867521 196.696562,48.7459588 C197.044251,48.1051654 197.599209,47.1373149 198.361451,45.8423782 C199.123693,44.5474416 200.126627,42.8053107 201.370285,40.6159333 C202.613943,38.4265559 203.643623,36.804572 204.459355,35.7499329 C205.275088,34.6952938 206.07075,34.1613073 206.846364,34.1479574 C207.621979,34.1346075 208.303975,34.4483246 208.892372,35.089118 C209.480769,35.7299114 209.774963,36.2505482 209.774963,36.6510441 C209.774963,37.0515399 208.879008,38.8537443 207.087071,42.0577112 C201.791496,51.6162126 199.143748,57.1830216 199.143748,58.7583054 C199.143748,59.1588012 199.290845,59.3590462 199.585043,59.3590462 C200.868819,59.3590462 204.064838,56.5823165 209.173196,51.0287738 C214.281555,45.4752311 217.236869,41.9175462 218.039229,40.3556123 C218.841589,38.7936784 219.623878,37.4787367 220.38612,36.4107477 C221.148362,35.3427588 221.716692,34.6886253 222.091126,34.4483278 C223.241176,33.7007355 224.725519,33.3002457 226.544202,33.2468462 C226.8384,33.2468462 227.065732,33.2601959 227.226204,33.2868956 C227.386676,33.3135953 227.573891,33.5405396 227.787853,33.9677352 C228.001816,34.3949308 228.108796,34.7286723 228.108796,34.9689698 C227.868088,35.7165621 226.804977,37.7056618 224.919431,40.9363284 C223.033885,44.1669951 221.984147,45.9958988 221.770184,46.4230943 C218.614235,52.9378271 217.036284,57.1830196 217.036284,59.1587992 C217.036284,60.2801877 217.464203,60.8408735 218.320054,60.8408735 C219.871283,60.6272757 221.288952,59.4987373 223.916576,57.6263575 C226.544201,55.7539777 231.574984,53.7060593 228.544039,57.6263575 Z" id="Path-Copy-3"></path>
                    </g>
                </g>
            </g>
        </g>
    </g>
</svg>